<svg width="390" height="67" viewBox="0 0 390 67" fill="none" xmlns="http://www.w3.org/2000/svg">
<path d="M188 10C188 4.47715 192.477 0 198 0H390V34C390 39.5228 385.523 44 380 44H198C192.477 44 188 39.5228 188 34V10Z" fill="#4629F2" fill-opacity="0.8"/>
<path d="M204.44 28V17.504H205.768V21.904H210.648V17.504H211.992V28H210.648V23.056H205.768V28H204.44ZM217.902 28.192C217.379 28.192 216.888 28.1013 216.43 27.92C215.982 27.728 215.587 27.4613 215.246 27.12C214.915 26.768 214.654 26.3413 214.462 25.84C214.27 25.3387 214.174 24.768 214.174 24.128C214.174 23.488 214.27 22.9173 214.462 22.416C214.664 21.904 214.926 21.472 215.246 21.12C215.576 20.768 215.95 20.5013 216.366 20.32C216.782 20.128 217.214 20.032 217.661 20.032C218.152 20.032 218.59 20.1173 218.974 20.288C219.368 20.4587 219.694 20.704 219.95 21.024C220.216 21.344 220.419 21.728 220.558 22.176C220.696 22.624 220.766 23.1253 220.766 23.68C220.766 23.8187 220.76 23.9573 220.75 24.096C220.75 24.224 220.739 24.336 220.718 24.432H215.47C215.523 25.264 215.779 25.9253 216.238 26.416C216.707 26.896 217.315 27.136 218.062 27.136C218.435 27.136 218.776 27.0827 219.086 26.976C219.406 26.8587 219.71 26.7093 219.998 26.528L220.462 27.392C220.12 27.6053 219.742 27.792 219.326 27.952C218.91 28.112 218.435 28.192 217.902 28.192ZM215.454 23.488H219.614C219.614 22.6987 219.443 22.1013 219.102 21.696C218.771 21.28 218.302 21.072 217.694 21.072C217.416 21.072 217.15 21.1253 216.894 21.232C216.648 21.3387 216.424 21.4987 216.222 21.712C216.019 21.9147 215.848 22.1653 215.71 22.464C215.582 22.7627 215.496 23.104 215.454 23.488ZM224.079 28.192C223.578 28.192 223.22 28.0427 223.007 27.744C222.794 27.4453 222.687 27.008 222.687 26.432V16.608H223.999V26.528C223.999 26.7413 224.036 26.8907 224.111 26.976C224.186 27.0613 224.271 27.104 224.367 27.104C224.41 27.104 224.447 27.104 224.479 27.104C224.522 27.104 224.58 27.0933 224.655 27.072L224.831 28.064C224.746 28.1067 224.644 28.1387 224.527 28.16C224.41 28.1813 224.26 28.192 224.079 28.192ZM228.157 28.192C227.656 28.192 227.298 28.0427 227.085 27.744C226.872 27.4453 226.765 27.008 226.765 26.432V16.608H228.077V26.528C228.077 26.7413 228.114 26.8907 228.189 26.976C228.264 27.0613 228.349 27.104 228.445 27.104C228.488 27.104 228.525 27.104 228.557 27.104C228.6 27.104 228.658 27.0933 228.733 27.072L228.909 28.064C228.824 28.1067 228.722 28.1387 228.605 28.16C228.488 28.1813 228.338 28.192 228.157 28.192ZM233.867 28.192C233.387 28.192 232.929 28.1013 232.491 27.92C232.065 27.7387 231.686 27.4773 231.355 27.136C231.025 26.784 230.758 26.3573 230.555 25.856C230.363 25.344 230.267 24.768 230.267 24.128C230.267 23.4773 230.363 22.9013 230.555 22.4C230.758 21.888 231.025 21.456 231.355 21.104C231.686 20.752 232.065 20.4853 232.491 20.304C232.929 20.1227 233.387 20.032 233.867 20.032C234.347 20.032 234.801 20.1227 235.227 20.304C235.665 20.4853 236.049 20.752 236.379 21.104C236.71 21.456 236.971 21.888 237.163 22.4C237.366 22.9013 237.467 23.4773 237.467 24.128C237.467 24.768 237.366 25.344 237.163 25.856C236.971 26.3573 236.71 26.784 236.379 27.136C236.049 27.4773 235.665 27.7387 235.227 27.92C234.801 28.1013 234.347 28.192 233.867 28.192ZM233.867 27.104C234.198 27.104 234.502 27.0347 234.779 26.896C235.057 26.7467 235.291 26.544 235.483 26.288C235.686 26.0213 235.841 25.7067 235.947 25.344C236.054 24.9813 236.107 24.576 236.107 24.128C236.107 23.68 236.054 23.2747 235.947 22.912C235.841 22.5387 235.686 22.2187 235.483 21.952C235.291 21.6853 235.057 21.4827 234.779 21.344C234.502 21.1947 234.198 21.12 233.867 21.12C233.537 21.12 233.233 21.1947 232.955 21.344C232.678 21.4827 232.438 21.6853 232.235 21.952C232.043 22.2187 231.894 22.5387 231.787 22.912C231.681 23.2747 231.627 23.68 231.627 24.128C231.627 24.576 231.681 24.9813 231.787 25.344C231.894 25.7067 232.043 26.0213 232.235 26.288C232.438 26.544 232.678 26.7467 232.955 26.896C233.233 27.0347 233.537 27.104 233.867 27.104ZM239.119 30.72L238.799 29.952C239.258 29.7493 239.615 29.4773 239.871 29.136C240.127 28.8053 240.25 28.4267 240.239 28C240.207 28.0107 240.154 28.016 240.079 28.016C239.823 28.016 239.599 27.9413 239.407 27.792C239.226 27.632 239.135 27.4027 239.135 27.104C239.135 26.816 239.231 26.592 239.423 26.432C239.615 26.2613 239.844 26.176 240.111 26.176C240.452 26.176 240.719 26.3147 240.911 26.592C241.114 26.8693 241.215 27.248 241.215 27.728C241.215 28.4213 241.028 29.024 240.655 29.536C240.282 30.048 239.77 30.4427 239.119 30.72ZM246.546 28V16.608H247.858V19.712L247.81 21.312C248.184 20.96 248.573 20.6613 248.978 20.416C249.384 20.16 249.858 20.032 250.402 20.032C251.224 20.032 251.821 20.288 252.194 20.8C252.578 21.312 252.77 22.0693 252.77 23.072V28H251.458V23.248C251.458 22.512 251.341 21.984 251.106 21.664C250.872 21.3333 250.498 21.168 249.986 21.168C249.581 21.168 249.224 21.2693 248.914 21.472C248.605 21.6747 248.253 21.9733 247.858 22.368V28H246.546ZM258.274 28.192C257.794 28.192 257.335 28.1013 256.898 27.92C256.471 27.7387 256.092 27.4773 255.762 27.136C255.431 26.784 255.164 26.3573 254.962 25.856C254.77 25.344 254.674 24.768 254.674 24.128C254.674 23.4773 254.77 22.9013 254.962 22.4C255.164 21.888 255.431 21.456 255.762 21.104C256.092 20.752 256.471 20.4853 256.898 20.304C257.335 20.1227 257.794 20.032 258.274 20.032C258.754 20.032 259.207 20.1227 259.634 20.304C260.071 20.4853 260.455 20.752 260.786 21.104C261.116 21.456 261.378 21.888 261.57 22.4C261.772 22.9013 261.874 23.4773 261.874 24.128C261.874 24.768 261.772 25.344 261.57 25.856C261.378 26.3573 261.116 26.784 260.786 27.136C260.455 27.4773 260.071 27.7387 259.634 27.92C259.207 28.1013 258.754 28.192 258.274 28.192ZM258.274 27.104C258.604 27.104 258.908 27.0347 259.186 26.896C259.463 26.7467 259.698 26.544 259.89 26.288C260.092 26.0213 260.247 25.7067 260.354 25.344C260.46 24.9813 260.514 24.576 260.514 24.128C260.514 23.68 260.46 23.2747 260.354 22.912C260.247 22.5387 260.092 22.2187 259.89 21.952C259.698 21.6853 259.463 21.4827 259.186 21.344C258.908 21.1947 258.604 21.12 258.274 21.12C257.943 21.12 257.639 21.1947 257.362 21.344C257.084 21.4827 256.844 21.6853 256.642 21.952C256.45 22.2187 256.3 22.5387 256.194 22.912C256.087 23.2747 256.034 23.68 256.034 24.128C256.034 24.576 256.087 24.9813 256.194 25.344C256.3 25.7067 256.45 26.0213 256.642 26.288C256.844 26.544 257.084 26.7467 257.362 26.896C257.639 27.0347 257.943 27.104 258.274 27.104ZM265.091 28L262.931 20.224H264.275L265.427 24.72C265.512 25.0933 265.592 25.456 265.667 25.808C265.742 26.16 265.816 26.5173 265.891 26.88H265.955C266.04 26.5173 266.126 26.16 266.211 25.808C266.296 25.4453 266.387 25.0827 266.483 24.72L267.683 20.224H268.963L270.179 24.72C270.275 25.0933 270.366 25.456 270.451 25.808C270.547 26.16 270.638 26.5173 270.723 26.88H270.787C270.872 26.5173 270.952 26.16 271.027 25.808C271.102 25.456 271.182 25.0933 271.267 24.72L272.403 20.224H273.651L271.571 28H269.971L268.851 23.824C268.755 23.4507 268.664 23.0827 268.579 22.72C268.504 22.3573 268.419 21.9787 268.323 21.584H268.259C268.174 21.9787 268.088 22.3627 268.003 22.736C267.918 23.0987 267.822 23.4667 267.715 23.84L266.627 28H265.091ZM280.338 28.192C279.688 28.192 279.144 28 278.706 27.616C278.28 27.232 278.066 26.688 278.066 25.984C278.066 25.1307 278.445 24.48 279.202 24.032C279.96 23.5733 281.17 23.2533 282.834 23.072C282.834 22.8267 282.808 22.5867 282.754 22.352C282.712 22.1173 282.632 21.9093 282.514 21.728C282.397 21.5467 282.232 21.4027 282.018 21.296C281.816 21.1787 281.554 21.12 281.234 21.12C280.786 21.12 280.365 21.2053 279.97 21.376C279.576 21.5467 279.224 21.7387 278.914 21.952L278.402 21.04C278.765 20.8053 279.208 20.5813 279.73 20.368C280.253 20.144 280.829 20.032 281.458 20.032C282.408 20.032 283.096 20.3253 283.522 20.912C283.949 21.488 284.162 22.2613 284.162 23.232V28H283.074L282.962 27.072H282.914C282.541 27.3813 282.141 27.648 281.714 27.872C281.288 28.0853 280.829 28.192 280.338 28.192ZM280.722 27.136C281.096 27.136 281.448 27.0507 281.778 26.88C282.109 26.6987 282.461 26.4373 282.834 26.096V23.936C282.184 24.0213 281.634 24.1227 281.186 24.24C280.749 24.3573 280.392 24.496 280.114 24.656C279.848 24.816 279.65 25.0027 279.522 25.216C279.405 25.4187 279.346 25.6427 279.346 25.888C279.346 26.336 279.48 26.656 279.746 26.848C280.013 27.04 280.338 27.136 280.722 27.136ZM286.609 28V20.224H287.697L287.809 21.632H287.857C288.124 21.1413 288.444 20.752 288.817 20.464C289.201 20.176 289.617 20.032 290.065 20.032C290.374 20.032 290.652 20.0853 290.897 20.192L290.641 21.344C290.513 21.3013 290.396 21.2693 290.289 21.248C290.182 21.2267 290.049 21.216 289.889 21.216C289.558 21.216 289.212 21.3493 288.849 21.616C288.497 21.8827 288.188 22.3467 287.921 23.008V28H286.609ZM295.152 28.192C294.629 28.192 294.138 28.1013 293.68 27.92C293.232 27.728 292.837 27.4613 292.496 27.12C292.165 26.768 291.904 26.3413 291.712 25.84C291.52 25.3387 291.424 24.768 291.424 24.128C291.424 23.488 291.52 22.9173 291.712 22.416C291.914 21.904 292.176 21.472 292.496 21.12C292.826 20.768 293.2 20.5013 293.616 20.32C294.032 20.128 294.464 20.032 294.911 20.032C295.402 20.032 295.84 20.1173 296.224 20.288C296.618 20.4587 296.944 20.704 297.2 21.024C297.466 21.344 297.669 21.728 297.808 22.176C297.946 22.624 298.016 23.1253 298.016 23.68C298.016 23.8187 298.01 23.9573 298 24.096C298 24.224 297.989 24.336 297.968 24.432H292.72C292.773 25.264 293.029 25.9253 293.488 26.416C293.957 26.896 294.565 27.136 295.312 27.136C295.685 27.136 296.026 27.0827 296.336 26.976C296.656 26.8587 296.96 26.7093 297.248 26.528L297.712 27.392C297.37 27.6053 296.992 27.792 296.576 27.952C296.16 28.112 295.685 28.192 295.152 28.192ZM292.704 23.488H296.864C296.864 22.6987 296.693 22.1013 296.352 21.696C296.021 21.28 295.552 21.072 294.944 21.072C294.666 21.072 294.4 21.1253 294.144 21.232C293.898 21.3387 293.674 21.4987 293.472 21.712C293.269 21.9147 293.098 22.1653 292.96 22.464C292.832 22.7627 292.746 23.104 292.704 23.488ZM303.268 31.344C303.087 31.344 302.921 31.328 302.772 31.296C302.623 31.2747 302.484 31.2373 302.356 31.184L302.612 30.144C302.697 30.1653 302.793 30.1867 302.9 30.208C303.007 30.24 303.108 30.256 303.204 30.256C303.652 30.256 304.015 30.096 304.292 29.776C304.58 29.4667 304.804 29.072 304.964 28.592L305.14 28.016L302.02 20.224H303.38L304.964 24.528C305.081 24.8693 305.204 25.232 305.332 25.616C305.471 25.9893 305.599 26.3573 305.716 26.72H305.78C305.897 26.368 306.009 26 306.116 25.616C306.223 25.232 306.329 24.8693 306.436 24.528L307.828 20.224H309.108L306.18 28.64C306.041 29.024 305.887 29.3813 305.716 29.712C305.545 30.0427 305.343 30.3253 305.108 30.56C304.873 30.8053 304.607 30.9973 304.308 31.136C304.009 31.2747 303.663 31.344 303.268 31.344ZM313.57 28.192C313.09 28.192 312.632 28.1013 312.194 27.92C311.768 27.7387 311.389 27.4773 311.058 27.136C310.728 26.784 310.461 26.3573 310.258 25.856C310.066 25.344 309.97 24.768 309.97 24.128C309.97 23.4773 310.066 22.9013 310.258 22.4C310.461 21.888 310.728 21.456 311.058 21.104C311.389 20.752 311.768 20.4853 312.194 20.304C312.632 20.1227 313.09 20.032 313.57 20.032C314.05 20.032 314.504 20.1227 314.93 20.304C315.368 20.4853 315.752 20.752 316.082 21.104C316.413 21.456 316.674 21.888 316.866 22.4C317.069 22.9013 317.17 23.4773 317.17 24.128C317.17 24.768 317.069 25.344 316.866 25.856C316.674 26.3573 316.413 26.784 316.082 27.136C315.752 27.4773 315.368 27.7387 314.93 27.92C314.504 28.1013 314.05 28.192 313.57 28.192ZM313.57 27.104C313.901 27.104 314.205 27.0347 314.482 26.896C314.76 26.7467 314.994 26.544 315.186 26.288C315.389 26.0213 315.544 25.7067 315.65 25.344C315.757 24.9813 315.81 24.576 315.81 24.128C315.81 23.68 315.757 23.2747 315.65 22.912C315.544 22.5387 315.389 22.2187 315.186 21.952C314.994 21.6853 314.76 21.4827 314.482 21.344C314.205 21.1947 313.901 21.12 313.57 21.12C313.24 21.12 312.936 21.1947 312.658 21.344C312.381 21.4827 312.141 21.6853 311.938 21.952C311.746 22.2187 311.597 22.5387 311.49 22.912C311.384 23.2747 311.33 23.68 311.33 24.128C311.33 24.576 311.384 24.9813 311.49 25.344C311.597 25.7067 311.746 26.0213 311.938 26.288C312.141 26.544 312.381 26.7467 312.658 26.896C312.936 27.0347 313.24 27.104 313.57 27.104ZM321.49 28.192C320.658 28.192 320.05 27.936 319.666 27.424C319.293 26.912 319.106 26.1547 319.106 25.152V20.224H320.434V24.976C320.434 25.712 320.546 26.2453 320.77 26.576C321.005 26.896 321.378 27.056 321.89 27.056C322.296 27.056 322.653 26.9547 322.962 26.752C323.272 26.5387 323.613 26.2027 323.986 25.744V20.224H325.298V28H324.21L324.098 26.784H324.05C323.688 27.2107 323.304 27.552 322.898 27.808C322.504 28.064 322.034 28.192 321.49 28.192ZM333.781 28.192C332.799 28.192 332.015 27.84 331.429 27.136C330.853 26.432 330.565 25.4293 330.565 24.128C330.565 23.4987 330.655 22.9333 330.837 22.432C331.029 21.92 331.279 21.488 331.589 21.136C331.898 20.784 332.255 20.512 332.661 20.32C333.066 20.128 333.493 20.032 333.941 20.032C334.389 20.032 334.778 20.112 335.109 20.272C335.439 20.432 335.775 20.6507 336.117 20.928L336.053 19.6V16.608H337.381V28H336.293L336.181 27.088H336.133C335.823 27.3867 335.466 27.648 335.061 27.872C334.666 28.0853 334.239 28.192 333.781 28.192ZM334.069 27.088C334.431 27.088 334.773 27.0027 335.093 26.832C335.413 26.6507 335.733 26.3787 336.053 26.016V21.952C335.722 21.6533 335.402 21.4453 335.093 21.328C334.794 21.2 334.485 21.136 334.165 21.136C333.855 21.136 333.562 21.2107 333.285 21.36C333.018 21.4987 332.783 21.7013 332.581 21.968C332.378 22.224 332.218 22.5333 332.101 22.896C331.983 23.2587 331.924 23.664 331.924 24.112C331.924 25.0507 332.111 25.7813 332.485 26.304C332.858 26.8267 333.386 27.088 334.069 27.088ZM343.024 28.192C342.544 28.192 342.085 28.1013 341.648 27.92C341.221 27.7387 340.842 27.4773 340.512 27.136C340.181 26.784 339.914 26.3573 339.712 25.856C339.52 25.344 339.424 24.768 339.424 24.128C339.424 23.4773 339.52 22.9013 339.712 22.4C339.914 21.888 340.181 21.456 340.512 21.104C340.842 20.752 341.221 20.4853 341.648 20.304C342.085 20.1227 342.544 20.032 343.024 20.032C343.504 20.032 343.957 20.1227 344.384 20.304C344.821 20.4853 345.205 20.752 345.536 21.104C345.866 21.456 346.128 21.888 346.32 22.4C346.522 22.9013 346.624 23.4773 346.624 24.128C346.624 24.768 346.522 25.344 346.32 25.856C346.128 26.3573 345.866 26.784 345.536 27.136C345.205 27.4773 344.821 27.7387 344.384 27.92C343.957 28.1013 343.504 28.192 343.024 28.192ZM343.024 27.104C343.354 27.104 343.658 27.0347 343.936 26.896C344.213 26.7467 344.448 26.544 344.64 26.288C344.842 26.0213 344.997 25.7067 345.104 25.344C345.21 24.9813 345.264 24.576 345.264 24.128C345.264 23.68 345.21 23.2747 345.104 22.912C344.997 22.5387 344.842 22.2187 344.64 21.952C344.448 21.6853 344.213 21.4827 343.936 21.344C343.658 21.1947 343.354 21.12 343.024 21.12C342.693 21.12 342.389 21.1947 342.112 21.344C341.834 21.4827 341.594 21.6853 341.392 21.952C341.2 22.2187 341.05 22.5387 340.944 22.912C340.837 23.2747 340.784 23.68 340.784 24.128C340.784 24.576 340.837 24.9813 340.944 25.344C341.05 25.7067 341.2 26.0213 341.392 26.288C341.594 26.544 341.834 26.7467 342.112 26.896C342.389 27.0347 342.693 27.104 343.024 27.104ZM348.671 28V20.224H349.983V28H348.671ZM349.343 18.624C349.087 18.624 348.869 18.544 348.687 18.384C348.517 18.224 348.431 18.0213 348.431 17.776C348.431 17.52 348.517 17.3173 348.687 17.168C348.869 17.008 349.087 16.928 349.343 16.928C349.599 16.928 349.813 17.008 349.983 17.168C350.165 17.3173 350.255 17.52 350.255 17.776C350.255 18.0213 350.165 18.224 349.983 18.384C349.813 18.544 349.599 18.624 349.343 18.624ZM352.609 28V20.224H353.697L353.809 21.344H353.857C354.23 20.9707 354.62 20.6613 355.025 20.416C355.441 20.16 355.921 20.032 356.465 20.032C357.286 20.032 357.884 20.288 358.257 20.8C358.641 21.312 358.833 22.0693 358.833 23.072V28H357.521V23.248C357.521 22.512 357.404 21.984 357.169 21.664C356.934 21.3333 356.561 21.168 356.049 21.168C355.644 21.168 355.286 21.2693 354.977 21.472C354.668 21.6747 354.316 21.9733 353.921 22.368V28H352.609ZM363.983 31.584C363.503 31.584 363.066 31.536 362.671 31.44C362.276 31.3547 361.935 31.2213 361.647 31.04C361.37 30.8587 361.151 30.64 360.991 30.384C360.842 30.128 360.767 29.8293 360.767 29.488C360.767 29.1573 360.868 28.8427 361.071 28.544C361.274 28.2453 361.551 27.9733 361.903 27.728V27.664C361.711 27.5467 361.546 27.3867 361.407 27.184C361.279 26.9707 361.215 26.7093 361.215 26.4C361.215 26.0693 361.306 25.7813 361.487 25.536C361.668 25.2907 361.86 25.0987 362.063 24.96V24.896C361.807 24.6827 361.572 24.4 361.359 24.048C361.156 23.6853 361.055 23.2693 361.055 22.8C361.055 22.3733 361.13 21.9893 361.279 21.648C361.439 21.3067 361.652 21.0187 361.919 20.784C362.186 20.5387 362.495 20.352 362.847 20.224C363.21 20.096 363.588 20.032 363.983 20.032C364.196 20.032 364.394 20.0533 364.575 20.096C364.767 20.128 364.938 20.1707 365.087 20.224H367.791V21.232H366.191C366.372 21.4133 366.522 21.6427 366.639 21.92C366.767 22.1973 366.831 22.5013 366.831 22.832C366.831 23.248 366.756 23.6267 366.607 23.968C366.458 24.2987 366.255 24.5813 365.999 24.816C365.743 25.04 365.439 25.216 365.087 25.344C364.746 25.472 364.378 25.536 363.983 25.536C363.791 25.536 363.594 25.5147 363.391 25.472C363.188 25.4187 362.996 25.3493 362.815 25.264C362.676 25.3813 362.559 25.5147 362.463 25.664C362.367 25.8027 362.319 25.9787 362.319 26.192C362.319 26.4373 362.415 26.64 362.607 26.8C362.799 26.96 363.162 27.04 363.695 27.04H365.199C366.106 27.04 366.783 27.1893 367.231 27.488C367.69 27.776 367.919 28.2453 367.919 28.896C367.919 29.2587 367.828 29.6 367.647 29.92C367.466 30.2507 367.204 30.5387 366.863 30.784C366.522 31.0293 366.106 31.2213 365.615 31.36C365.135 31.5093 364.591 31.584 363.983 31.584ZM363.983 24.656C364.207 24.656 364.415 24.6133 364.607 24.528C364.81 24.4427 364.986 24.32 365.135 24.16C365.295 24 365.418 23.808 365.503 23.584C365.588 23.3493 365.631 23.088 365.631 22.8C365.631 22.224 365.471 21.7813 365.151 21.472C364.831 21.152 364.442 20.992 363.983 20.992C363.524 20.992 363.135 21.152 362.815 21.472C362.495 21.7813 362.335 22.224 362.335 22.8C362.335 23.088 362.378 23.3493 362.463 23.584C362.548 23.808 362.666 24 362.815 24.16C362.975 24.32 363.151 24.4427 363.343 24.528C363.546 24.6133 363.759 24.656 363.983 24.656ZM364.175 30.672C364.548 30.672 364.884 30.624 365.183 30.528C365.492 30.4427 365.754 30.3253 365.967 30.176C366.18 30.0373 366.346 29.872 366.463 29.68C366.58 29.488 366.639 29.2907 366.639 29.088C366.639 28.7253 366.506 28.4747 366.239 28.336C365.972 28.1973 365.583 28.128 365.071 28.128H363.727C363.578 28.128 363.412 28.1173 363.231 28.096C363.06 28.0853 362.89 28.0533 362.719 28C362.442 28.2027 362.239 28.416 362.111 28.64C361.983 28.864 361.919 29.088 361.919 29.312C361.919 29.728 362.116 30.0587 362.511 30.304C362.916 30.5493 363.471 30.672 364.175 30.672ZM370.091 24.832C370.027 24.416 370.038 24.0427 370.123 23.712C370.219 23.3707 370.347 23.0613 370.507 22.784C370.667 22.496 370.849 22.2293 371.051 21.984C371.265 21.7387 371.462 21.4987 371.643 21.264C371.825 21.0187 371.974 20.7733 372.091 20.528C372.219 20.2827 372.283 20.016 372.283 19.728C372.283 19.3013 372.15 18.9387 371.883 18.64C371.627 18.3307 371.243 18.176 370.731 18.176C370.379 18.176 370.043 18.2613 369.723 18.432C369.414 18.592 369.137 18.816 368.891 19.104L368.139 18.416C368.481 18.032 368.875 17.7173 369.323 17.472C369.782 17.216 370.305 17.088 370.891 17.088C371.702 17.088 372.347 17.3173 372.827 17.776C373.318 18.224 373.563 18.848 373.563 19.648C373.563 20 373.499 20.32 373.371 20.608C373.243 20.896 373.083 21.168 372.891 21.424C372.71 21.68 372.513 21.936 372.299 22.192C372.097 22.4373 371.905 22.6933 371.723 22.96C371.553 23.2267 371.419 23.5147 371.323 23.824C371.227 24.1227 371.201 24.4587 371.243 24.832H370.091ZM370.699 28.192C370.433 28.192 370.209 28.1013 370.027 27.92C369.846 27.728 369.755 27.488 369.755 27.2C369.755 26.8907 369.846 26.6453 370.027 26.464C370.209 26.272 370.433 26.176 370.699 26.176C370.966 26.176 371.19 26.272 371.371 26.464C371.563 26.6453 371.659 26.8907 371.659 27.2C371.659 27.488 371.563 27.728 371.371 27.92C371.19 28.1013 370.966 28.192 370.699 28.192Z" fill="white"/>
<path d="M191.486 63.168C190.581 63.168 189.876 62.7667 189.372 61.964C188.868 61.1613 188.616 60.0087 188.616 58.506C188.616 57.0033 188.868 55.86 189.372 55.076C189.876 54.292 190.581 53.9 191.486 53.9C192.382 53.9 193.082 54.292 193.586 55.076C194.09 55.86 194.342 57.0033 194.342 58.506C194.342 60.0087 194.09 61.1613 193.586 61.964C193.082 62.7667 192.382 63.168 191.486 63.168ZM191.486 62.244C191.747 62.244 191.981 62.174 192.186 62.034C192.401 61.8847 192.583 61.6607 192.732 61.362C192.891 61.054 193.012 60.6667 193.096 60.2C193.18 59.724 193.222 59.1593 193.222 58.506C193.222 57.8527 193.18 57.2927 193.096 56.826C193.012 56.3593 192.891 55.9813 192.732 55.692C192.583 55.3933 192.401 55.174 192.186 55.034C191.981 54.894 191.747 54.824 191.486 54.824C191.225 54.824 190.987 54.894 190.772 55.034C190.557 55.174 190.371 55.3933 190.212 55.692C190.063 55.9813 189.946 56.3593 189.862 56.826C189.778 57.2927 189.736 57.8527 189.736 58.506C189.736 59.8127 189.895 60.7647 190.212 61.362C190.539 61.95 190.963 62.244 191.486 62.244ZM198.459 63.168C198.039 63.168 197.647 63.1073 197.283 62.986C196.928 62.8647 196.62 62.6967 196.359 62.482C196.107 62.258 195.906 61.9967 195.757 61.698C195.608 61.3993 195.533 61.0727 195.533 60.718C195.533 60.4287 195.58 60.1627 195.673 59.92C195.776 59.668 195.902 59.444 196.051 59.248C196.21 59.0427 196.387 58.8653 196.583 58.716C196.788 58.5573 196.998 58.422 197.213 58.31V58.254C196.886 58.0207 196.597 57.7407 196.345 57.414C196.093 57.078 195.967 56.672 195.967 56.196C195.967 55.8507 196.032 55.538 196.163 55.258C196.294 54.978 196.471 54.74 196.695 54.544C196.919 54.3387 197.185 54.18 197.493 54.068C197.801 53.956 198.137 53.9 198.501 53.9C198.893 53.9 199.243 53.9607 199.551 54.082C199.859 54.194 200.12 54.3573 200.335 54.572C200.559 54.7773 200.727 55.0293 200.839 55.328C200.96 55.6173 201.021 55.9347 201.021 56.28C201.021 56.5133 200.979 56.7373 200.895 56.952C200.82 57.1667 200.722 57.3673 200.601 57.554C200.489 57.7407 200.358 57.9087 200.209 58.058C200.069 58.2073 199.929 58.3333 199.789 58.436V58.492C199.985 58.604 200.176 58.7347 200.363 58.884C200.55 59.024 200.713 59.1873 200.853 59.374C201.002 59.5513 201.119 59.7567 201.203 59.99C201.296 60.2233 201.343 60.4893 201.343 60.788C201.343 61.124 201.273 61.4367 201.133 61.726C200.993 62.0153 200.797 62.2673 200.545 62.482C200.293 62.6967 199.99 62.8647 199.635 62.986C199.28 63.1073 198.888 63.168 198.459 63.168ZM199.089 58.128C199.388 57.8573 199.616 57.5727 199.775 57.274C199.943 56.9753 200.027 56.6627 200.027 56.336C200.027 55.888 199.892 55.5147 199.621 55.216C199.35 54.908 198.968 54.754 198.473 54.754C198.053 54.754 197.708 54.8847 197.437 55.146C197.166 55.4073 197.031 55.7573 197.031 56.196C197.031 56.4667 197.087 56.7 197.199 56.896C197.311 57.0827 197.46 57.2507 197.647 57.4C197.843 57.5493 198.062 57.6847 198.305 57.806C198.557 57.918 198.818 58.0253 199.089 58.128ZM198.487 62.314C199.01 62.314 199.43 62.1693 199.747 61.88C200.074 61.5907 200.237 61.2127 200.237 60.746C200.237 60.4567 200.172 60.2093 200.041 60.004C199.91 59.7987 199.733 59.6213 199.509 59.472C199.285 59.3133 199.024 59.1733 198.725 59.052C198.436 58.9213 198.132 58.7907 197.815 58.66C197.46 58.9027 197.162 59.1873 196.919 59.514C196.686 59.8313 196.569 60.1953 196.569 60.606C196.569 60.858 196.616 61.0867 196.709 61.292C196.812 61.4973 196.947 61.6793 197.115 61.838C197.292 61.9873 197.498 62.104 197.731 62.188C197.964 62.272 198.216 62.314 198.487 62.314ZM203.668 58.114C203.435 58.114 203.234 58.0347 203.066 57.876C202.907 57.708 202.828 57.498 202.828 57.246C202.828 56.9753 202.907 56.7607 203.066 56.602C203.234 56.434 203.435 56.35 203.668 56.35C203.892 56.35 204.083 56.434 204.242 56.602C204.41 56.7607 204.494 56.9753 204.494 57.246C204.494 57.498 204.41 57.708 204.242 57.876C204.083 58.0347 203.892 58.114 203.668 58.114ZM203.668 63.168C203.435 63.168 203.234 63.0887 203.066 62.93C202.907 62.762 202.828 62.552 202.828 62.3C202.828 62.0293 202.907 61.8147 203.066 61.656C203.234 61.488 203.435 61.404 203.668 61.404C203.892 61.404 204.083 61.488 204.242 61.656C204.41 61.8147 204.494 62.0293 204.494 62.3C204.494 62.552 204.41 62.762 204.242 62.93C204.083 63.0887 203.892 63.168 203.668 63.168ZM206.51 63V62.048H208.554V55.468H206.93V54.726C207.341 54.6513 207.696 54.5627 207.994 54.46C208.302 54.348 208.578 54.2173 208.82 54.068H209.702V62.048H211.55V63H206.51ZM215.639 63.168C215.285 63.168 214.958 63.1307 214.659 63.056C214.37 62.9907 214.104 62.902 213.861 62.79C213.628 62.678 213.413 62.552 213.217 62.412C213.031 62.2627 212.863 62.1087 212.713 61.95L213.273 61.194C213.535 61.4647 213.843 61.7027 214.197 61.908C214.561 62.1133 215.005 62.216 215.527 62.216C215.798 62.216 216.05 62.1693 216.283 62.076C216.526 61.9733 216.736 61.8333 216.913 61.656C217.091 61.4787 217.231 61.264 217.333 61.012C217.436 60.76 217.487 60.48 217.487 60.172C217.487 59.556 217.315 59.0753 216.969 58.73C216.624 58.3847 216.162 58.212 215.583 58.212C215.275 58.212 215.009 58.2587 214.785 58.352C214.571 58.4453 214.328 58.5807 214.057 58.758L213.441 58.366L213.735 54.068H218.201V55.062H214.743L214.505 57.708C214.72 57.596 214.935 57.5073 215.149 57.442C215.364 57.3767 215.607 57.344 215.877 57.344C216.26 57.344 216.619 57.4 216.955 57.512C217.291 57.624 217.585 57.7967 217.837 58.03C218.089 58.254 218.285 58.5433 218.425 58.898C218.575 59.2433 218.649 59.6587 218.649 60.144C218.649 60.6293 218.565 61.0587 218.397 61.432C218.229 61.8053 218.005 62.1227 217.725 62.384C217.445 62.636 217.123 62.832 216.759 62.972C216.405 63.1027 216.031 63.168 215.639 63.168ZM224.967 57.862L224.533 59.262H227.291L226.857 57.862C226.689 57.3487 226.53 56.84 226.381 56.336C226.232 55.8227 226.082 55.3 225.933 54.768H225.877C225.737 55.3 225.592 55.8227 225.443 56.336C225.294 56.84 225.135 57.3487 224.967 57.862ZM222.167 63L225.275 53.816H226.591L229.699 63H228.453L227.585 60.2H224.239L223.357 63H222.167ZM231 63V53.816H232.4L234.164 58.716C234.276 59.0333 234.384 59.3553 234.486 59.682C234.598 59.9993 234.71 60.3167 234.822 60.634H234.878C234.99 60.3167 235.093 59.9993 235.186 59.682C235.289 59.3553 235.396 59.0333 235.508 58.716L237.244 53.816H238.658V63H237.566V57.946C237.566 57.5353 237.585 57.0827 237.622 56.588C237.66 56.0933 237.692 55.6407 237.72 55.23H237.664L236.936 57.316L235.2 62.076H234.43L232.694 57.316L231.966 55.23H231.91C231.938 55.6407 231.966 56.0933 231.994 56.588C232.032 57.0827 232.05 57.5353 232.05 57.946V63H231Z" fill="white"/>
</svg>
