<svg width="390" height="91" viewBox="0 0 390 91" fill="none" xmlns="http://www.w3.org/2000/svg">
<path d="M71 10C71 4.47715 75.4772 0 81 0H390V58C390 63.5228 385.523 68 380 68H81C75.4772 68 71 63.5228 71 58V10Z" fill="#4629F2" fill-opacity="0.8"/>
<path d="M87.44 28V17.504H88.768V28H87.44ZM94.7183 28V16.608H96.0303V19.712L95.9823 21.312C96.3556 20.96 96.7449 20.6613 97.1503 20.416C97.5556 20.16 98.0303 20.032 98.5743 20.032C99.3956 20.032 99.9929 20.288 100.366 20.8C100.75 21.312 100.942 22.0693 100.942 23.072V28H99.6303V23.248C99.6303 22.512 99.5129 21.984 99.2783 21.664C99.0436 21.3333 98.6703 21.168 98.1583 21.168C97.7529 21.168 97.3956 21.2693 97.0863 21.472C96.7769 21.6747 96.4249 21.9733 96.0303 22.368V28H94.7183ZM105.213 28.192C104.563 28.192 104.019 28 103.581 27.616C103.155 27.232 102.941 26.688 102.941 25.984C102.941 25.1307 103.32 24.48 104.077 24.032C104.835 23.5733 106.045 23.2533 107.709 23.072C107.709 22.8267 107.683 22.5867 107.629 22.352C107.587 22.1173 107.507 21.9093 107.389 21.728C107.272 21.5467 107.107 21.4027 106.893 21.296C106.691 21.1787 106.429 21.12 106.109 21.12C105.661 21.12 105.24 21.2053 104.845 21.376C104.451 21.5467 104.099 21.7387 103.789 21.952L103.277 21.04C103.64 20.8053 104.083 20.5813 104.605 20.368C105.128 20.144 105.704 20.032 106.333 20.032C107.283 20.032 107.971 20.3253 108.397 20.912C108.824 21.488 109.037 22.2613 109.037 23.232V28H107.949L107.837 27.072H107.789C107.416 27.3813 107.016 27.648 106.589 27.872C106.163 28.0853 105.704 28.192 105.213 28.192ZM105.597 27.136C105.971 27.136 106.323 27.0507 106.653 26.88C106.984 26.6987 107.336 26.4373 107.709 26.096V23.936C107.059 24.0213 106.509 24.1227 106.061 24.24C105.624 24.3573 105.267 24.496 104.989 24.656C104.723 24.816 104.525 25.0027 104.397 25.216C104.28 25.4187 104.221 25.6427 104.221 25.888C104.221 26.336 104.355 26.656 104.621 26.848C104.888 27.04 105.213 27.136 105.597 27.136ZM113.164 28L110.364 20.224H111.724L113.196 24.64C113.313 25.024 113.431 25.408 113.548 25.792C113.676 26.176 113.799 26.5547 113.916 26.928H113.98C114.097 26.5547 114.215 26.176 114.332 25.792C114.449 25.408 114.567 25.024 114.684 24.64L116.156 20.224H117.452L114.7 28H113.164ZM122.042 28.192C121.519 28.192 121.029 28.1013 120.57 27.92C120.122 27.728 119.727 27.4613 119.386 27.12C119.055 26.768 118.794 26.3413 118.602 25.84C118.41 25.3387 118.314 24.768 118.314 24.128C118.314 23.488 118.41 22.9173 118.602 22.416C118.805 21.904 119.066 21.472 119.386 21.12C119.717 20.768 120.09 20.5013 120.506 20.32C120.922 20.128 121.354 20.032 121.802 20.032C122.293 20.032 122.73 20.1173 123.114 20.288C123.509 20.4587 123.834 20.704 124.09 21.024C124.357 21.344 124.559 21.728 124.698 22.176C124.837 22.624 124.906 23.1253 124.906 23.68C124.906 23.8187 124.901 23.9573 124.89 24.096C124.89 24.224 124.879 24.336 124.858 24.432H119.61C119.663 25.264 119.919 25.9253 120.378 26.416C120.847 26.896 121.455 27.136 122.202 27.136C122.575 27.136 122.917 27.0827 123.226 26.976C123.546 26.8587 123.85 26.7093 124.138 26.528L124.602 27.392C124.261 27.6053 123.882 27.792 123.466 27.952C123.05 28.112 122.575 28.192 122.042 28.192ZM119.594 23.488H123.754C123.754 22.6987 123.583 22.1013 123.242 21.696C122.911 21.28 122.442 21.072 121.834 21.072C121.557 21.072 121.29 21.1253 121.034 21.232C120.789 21.3387 120.565 21.4987 120.362 21.712C120.159 21.9147 119.989 22.1653 119.85 22.464C119.722 22.7627 119.637 23.104 119.594 23.488ZM131.823 28.192C131.172 28.192 130.628 28 130.191 27.616C129.764 27.232 129.551 26.688 129.551 25.984C129.551 25.1307 129.929 24.48 130.687 24.032C131.444 23.5733 132.655 23.2533 134.319 23.072C134.319 22.8267 134.292 22.5867 134.239 22.352C134.196 22.1173 134.116 21.9093 133.999 21.728C133.881 21.5467 133.716 21.4027 133.503 21.296C133.3 21.1787 133.039 21.12 132.719 21.12C132.271 21.12 131.849 21.2053 131.455 21.376C131.06 21.5467 130.708 21.7387 130.399 21.952L129.887 21.04C130.249 20.8053 130.692 20.5813 131.215 20.368C131.737 20.144 132.313 20.032 132.943 20.032C133.892 20.032 134.58 20.3253 135.007 20.912C135.433 21.488 135.647 22.2613 135.647 23.232V28H134.559L134.447 27.072H134.399C134.025 27.3813 133.625 27.648 133.199 27.872C132.772 28.0853 132.313 28.192 131.823 28.192ZM132.207 27.136C132.58 27.136 132.932 27.0507 133.263 26.88C133.593 26.6987 133.945 26.4373 134.319 26.096V23.936C133.668 24.0213 133.119 24.1227 132.671 24.24C132.233 24.3573 131.876 24.496 131.599 24.656C131.332 24.816 131.135 25.0027 131.007 25.216C130.889 25.4187 130.831 25.6427 130.831 25.888C130.831 26.336 130.964 26.656 131.231 26.848C131.497 27.04 131.823 27.136 132.207 27.136ZM146.224 31.28V28.512L146.288 27.104C145.979 27.4133 145.622 27.6747 145.216 27.888C144.822 28.0907 144.4 28.192 143.952 28.192C142.971 28.192 142.187 27.84 141.6 27.136C141.024 26.432 140.736 25.4293 140.736 24.128C140.736 23.4987 140.827 22.9333 141.008 22.432C141.2 21.92 141.451 21.488 141.76 21.136C142.07 20.784 142.427 20.512 142.832 20.32C143.238 20.128 143.664 20.032 144.112 20.032C144.56 20.032 144.955 20.112 145.296 20.272C145.638 20.4213 145.984 20.6507 146.336 20.96H146.368L146.496 20.224H147.552V31.28H146.224ZM144.24 27.088C144.603 27.088 144.944 27.0027 145.264 26.832C145.584 26.6507 145.904 26.3787 146.224 26.016V21.952C145.894 21.6533 145.574 21.4453 145.264 21.328C144.966 21.2 144.656 21.136 144.336 21.136C144.027 21.136 143.734 21.2107 143.456 21.36C143.19 21.4987 142.955 21.7013 142.752 21.968C142.55 22.224 142.39 22.5333 142.272 22.896C142.155 23.2587 142.096 23.664 142.096 24.112C142.096 25.0507 142.283 25.7813 142.656 26.304C143.03 26.8267 143.558 27.088 144.24 27.088ZM152.443 28.192C151.611 28.192 151.003 27.936 150.619 27.424C150.246 26.912 150.059 26.1547 150.059 25.152V20.224H151.387V24.976C151.387 25.712 151.499 26.2453 151.723 26.576C151.958 26.896 152.331 27.056 152.843 27.056C153.249 27.056 153.606 26.9547 153.915 26.752C154.225 26.5387 154.566 26.2027 154.939 25.744V20.224H156.251V28H155.163L155.051 26.784H155.003C154.641 27.2107 154.257 27.552 153.851 27.808C153.457 28.064 152.987 28.192 152.443 28.192ZM162.027 28.192C161.504 28.192 161.013 28.1013 160.555 27.92C160.107 27.728 159.712 27.4613 159.371 27.12C159.04 26.768 158.779 26.3413 158.587 25.84C158.395 25.3387 158.299 24.768 158.299 24.128C158.299 23.488 158.395 22.9173 158.587 22.416C158.789 21.904 159.051 21.472 159.371 21.12C159.701 20.768 160.075 20.5013 160.491 20.32C160.907 20.128 161.339 20.032 161.786 20.032C162.277 20.032 162.715 20.1173 163.099 20.288C163.493 20.4587 163.819 20.704 164.075 21.024C164.341 21.344 164.544 21.728 164.683 22.176C164.821 22.624 164.891 23.1253 164.891 23.68C164.891 23.8187 164.885 23.9573 164.875 24.096C164.875 24.224 164.864 24.336 164.843 24.432H159.595C159.648 25.264 159.904 25.9253 160.363 26.416C160.832 26.896 161.44 27.136 162.187 27.136C162.56 27.136 162.901 27.0827 163.211 26.976C163.531 26.8587 163.835 26.7093 164.123 26.528L164.587 27.392C164.245 27.6053 163.867 27.792 163.451 27.952C163.035 28.112 162.56 28.192 162.027 28.192ZM159.579 23.488H163.739C163.739 22.6987 163.568 22.1013 163.227 21.696C162.896 21.28 162.427 21.072 161.819 21.072C161.541 21.072 161.275 21.1253 161.019 21.232C160.773 21.3387 160.549 21.4987 160.347 21.712C160.144 21.9147 159.973 22.1653 159.835 22.464C159.707 22.7627 159.621 23.104 159.579 23.488ZM168.844 28.192C168.289 28.192 167.761 28.0907 167.26 27.888C166.759 27.6853 166.321 27.4293 165.948 27.12L166.604 26.24C166.945 26.5173 167.292 26.7413 167.644 26.912C168.007 27.0827 168.423 27.168 168.892 27.168C169.404 27.168 169.788 27.0507 170.044 26.816C170.3 26.5813 170.428 26.2933 170.428 25.952C170.428 25.7493 170.375 25.5733 170.268 25.424C170.161 25.2747 170.023 25.1467 169.852 25.04C169.692 24.9227 169.505 24.8213 169.292 24.736C169.079 24.6507 168.865 24.5653 168.652 24.48C168.375 24.384 168.097 24.2773 167.82 24.16C167.543 24.032 167.292 23.8827 167.068 23.712C166.855 23.5307 166.679 23.3227 166.54 23.088C166.401 22.8533 166.332 22.5707 166.332 22.24C166.332 21.9307 166.391 21.6427 166.508 21.376C166.636 21.0987 166.812 20.864 167.036 20.672C167.271 20.4693 167.553 20.3147 167.884 20.208C168.215 20.0907 168.588 20.032 169.004 20.032C169.495 20.032 169.943 20.1173 170.348 20.288C170.764 20.4587 171.121 20.6667 171.42 20.912L170.796 21.744C170.529 21.5413 170.252 21.376 169.964 21.248C169.676 21.12 169.361 21.056 169.02 21.056C168.529 21.056 168.167 21.168 167.932 21.392C167.708 21.616 167.596 21.8773 167.596 22.176C167.596 22.3573 167.644 22.5173 167.74 22.656C167.836 22.784 167.964 22.9013 168.124 23.008C168.284 23.104 168.465 23.1947 168.668 23.28C168.881 23.3547 169.1 23.4347 169.324 23.52C169.601 23.6267 169.879 23.7387 170.156 23.856C170.444 23.9733 170.7 24.1227 170.924 24.304C171.148 24.4747 171.329 24.688 171.468 24.944C171.617 25.2 171.692 25.5093 171.692 25.872C171.692 26.192 171.628 26.4907 171.5 26.768C171.383 27.0453 171.201 27.2907 170.956 27.504C170.721 27.7173 170.423 27.8827 170.06 28C169.708 28.128 169.303 28.192 168.844 28.192ZM175.651 28.192C175.235 28.192 174.883 28.128 174.595 28C174.317 27.872 174.088 27.696 173.907 27.472C173.736 27.248 173.613 26.976 173.539 26.656C173.464 26.336 173.427 25.984 173.427 25.6V21.296H172.275V20.304L173.491 20.224L173.651 18.048H174.755V20.224H176.851V21.296H174.755V25.616C174.755 26.096 174.84 26.4693 175.011 26.736C175.192 26.992 175.507 27.12 175.955 27.12C176.093 27.12 176.243 27.0987 176.403 27.056C176.563 27.0133 176.707 26.9653 176.835 26.912L177.091 27.904C176.877 27.9787 176.643 28.0427 176.387 28.096C176.141 28.16 175.896 28.192 175.651 28.192ZM178.609 28V20.224H179.921V28H178.609ZM179.281 18.624C179.025 18.624 178.806 18.544 178.625 18.384C178.454 18.224 178.369 18.0213 178.369 17.776C178.369 17.52 178.454 17.3173 178.625 17.168C178.806 17.008 179.025 16.928 179.281 16.928C179.537 16.928 179.75 17.008 179.921 17.168C180.102 17.3173 180.193 17.52 180.193 17.776C180.193 18.0213 180.102 18.224 179.921 18.384C179.75 18.544 179.537 18.624 179.281 18.624ZM185.57 28.192C185.09 28.192 184.632 28.1013 184.194 27.92C183.768 27.7387 183.389 27.4773 183.058 27.136C182.728 26.784 182.461 26.3573 182.258 25.856C182.066 25.344 181.97 24.768 181.97 24.128C181.97 23.4773 182.066 22.9013 182.258 22.4C182.461 21.888 182.728 21.456 183.058 21.104C183.389 20.752 183.768 20.4853 184.194 20.304C184.632 20.1227 185.09 20.032 185.57 20.032C186.05 20.032 186.504 20.1227 186.93 20.304C187.368 20.4853 187.752 20.752 188.082 21.104C188.413 21.456 188.674 21.888 188.866 22.4C189.069 22.9013 189.17 23.4773 189.17 24.128C189.17 24.768 189.069 25.344 188.866 25.856C188.674 26.3573 188.413 26.784 188.082 27.136C187.752 27.4773 187.368 27.7387 186.93 27.92C186.504 28.1013 186.05 28.192 185.57 28.192ZM185.57 27.104C185.901 27.104 186.205 27.0347 186.482 26.896C186.76 26.7467 186.994 26.544 187.186 26.288C187.389 26.0213 187.544 25.7067 187.65 25.344C187.757 24.9813 187.81 24.576 187.81 24.128C187.81 23.68 187.757 23.2747 187.65 22.912C187.544 22.5387 187.389 22.2187 187.186 21.952C186.994 21.6853 186.76 21.4827 186.482 21.344C186.205 21.1947 185.901 21.12 185.57 21.12C185.24 21.12 184.936 21.1947 184.658 21.344C184.381 21.4827 184.141 21.6853 183.938 21.952C183.746 22.2187 183.597 22.5387 183.49 22.912C183.384 23.2747 183.33 23.68 183.33 24.128C183.33 24.576 183.384 24.9813 183.49 25.344C183.597 25.7067 183.746 26.0213 183.938 26.288C184.141 26.544 184.381 26.7467 184.658 26.896C184.936 27.0347 185.24 27.104 185.57 27.104ZM191.218 28V20.224H192.306L192.418 21.344H192.466C192.84 20.9707 193.229 20.6613 193.634 20.416C194.05 20.16 194.53 20.032 195.074 20.032C195.896 20.032 196.493 20.288 196.866 20.8C197.25 21.312 197.442 22.0693 197.442 23.072V28H196.13V23.248C196.13 22.512 196.013 21.984 195.778 21.664C195.544 21.3333 195.17 21.168 194.658 21.168C194.253 21.168 193.896 21.2693 193.586 21.472C193.277 21.6747 192.925 21.9733 192.53 22.368V28H191.218ZM204.963 28.192C204.313 28.192 203.769 28 203.331 27.616C202.905 27.232 202.691 26.688 202.691 25.984C202.691 25.1307 203.07 24.48 203.827 24.032C204.585 23.5733 205.795 23.2533 207.459 23.072C207.459 22.8267 207.433 22.5867 207.379 22.352C207.337 22.1173 207.257 21.9093 207.139 21.728C207.022 21.5467 206.857 21.4027 206.643 21.296C206.441 21.1787 206.179 21.12 205.859 21.12C205.411 21.12 204.99 21.2053 204.595 21.376C204.201 21.5467 203.849 21.7387 203.539 21.952L203.027 21.04C203.39 20.8053 203.833 20.5813 204.355 20.368C204.878 20.144 205.454 20.032 206.083 20.032C207.033 20.032 207.721 20.3253 208.147 20.912C208.574 21.488 208.787 22.2613 208.787 23.232V28H207.699L207.587 27.072H207.539C207.166 27.3813 206.766 27.648 206.339 27.872C205.913 28.0853 205.454 28.192 204.963 28.192ZM205.347 27.136C205.721 27.136 206.073 27.0507 206.403 26.88C206.734 26.6987 207.086 26.4373 207.459 26.096V23.936C206.809 24.0213 206.259 24.1227 205.811 24.24C205.374 24.3573 205.017 24.496 204.739 24.656C204.473 24.816 204.275 25.0027 204.147 25.216C204.03 25.4187 203.971 25.6427 203.971 25.888C203.971 26.336 204.105 26.656 204.371 26.848C204.638 27.04 204.963 27.136 205.347 27.136ZM214.674 28.192C214.311 28.192 213.933 28.1067 213.538 27.936C213.154 27.7547 212.791 27.5093 212.45 27.2H212.402L212.29 28H211.234V16.608H212.546V19.712L212.514 21.12C212.866 20.8107 213.25 20.5547 213.666 20.352C214.082 20.1387 214.509 20.032 214.946 20.032C215.447 20.032 215.89 20.128 216.274 20.32C216.658 20.5013 216.978 20.768 217.234 21.12C217.501 21.4613 217.698 21.8773 217.826 22.368C217.965 22.848 218.034 23.3867 218.034 23.984C218.034 24.6453 217.943 25.2373 217.762 25.76C217.581 26.2827 217.335 26.7253 217.026 27.088C216.717 27.4507 216.359 27.728 215.954 27.92C215.549 28.1013 215.122 28.192 214.674 28.192ZM214.45 27.088C214.77 27.088 215.063 27.0187 215.33 26.88C215.607 26.7307 215.842 26.528 216.034 26.272C216.237 26.0053 216.391 25.68 216.498 25.296C216.615 24.912 216.674 24.48 216.674 24C216.674 23.5733 216.637 23.184 216.562 22.832C216.487 22.48 216.365 22.1813 216.194 21.936C216.034 21.68 215.821 21.4827 215.554 21.344C215.298 21.2053 214.989 21.136 214.626 21.136C213.997 21.136 213.303 21.488 212.546 22.192V26.272C212.887 26.5707 213.223 26.784 213.554 26.912C213.895 27.0293 214.194 27.088 214.45 27.088ZM223.102 28.192C222.622 28.192 222.163 28.1013 221.726 27.92C221.299 27.7387 220.92 27.4773 220.59 27.136C220.259 26.784 219.992 26.3573 219.79 25.856C219.598 25.344 219.502 24.768 219.502 24.128C219.502 23.4773 219.598 22.9013 219.79 22.4C219.992 21.888 220.259 21.456 220.59 21.104C220.92 20.752 221.299 20.4853 221.726 20.304C222.163 20.1227 222.622 20.032 223.102 20.032C223.582 20.032 224.035 20.1227 224.462 20.304C224.899 20.4853 225.283 20.752 225.614 21.104C225.944 21.456 226.206 21.888 226.398 22.4C226.6 22.9013 226.702 23.4773 226.702 24.128C226.702 24.768 226.6 25.344 226.398 25.856C226.206 26.3573 225.944 26.784 225.614 27.136C225.283 27.4773 224.899 27.7387 224.462 27.92C224.035 28.1013 223.582 28.192 223.102 28.192ZM223.102 27.104C223.432 27.104 223.736 27.0347 224.014 26.896C224.291 26.7467 224.526 26.544 224.718 26.288C224.92 26.0213 225.075 25.7067 225.182 25.344C225.288 24.9813 225.342 24.576 225.342 24.128C225.342 23.68 225.288 23.2747 225.182 22.912C225.075 22.5387 224.92 22.2187 224.718 21.952C224.526 21.6853 224.291 21.4827 224.014 21.344C223.736 21.1947 223.432 21.12 223.102 21.12C222.771 21.12 222.467 21.1947 222.19 21.344C221.912 21.4827 221.672 21.6853 221.47 21.952C221.278 22.2187 221.128 22.5387 221.022 22.912C220.915 23.2747 220.862 23.68 220.862 24.128C220.862 24.576 220.915 24.9813 221.022 25.344C221.128 25.7067 221.278 26.0213 221.47 26.288C221.672 26.544 221.912 26.7467 222.19 26.896C222.467 27.0347 222.771 27.104 223.102 27.104ZM231.022 28.192C230.19 28.192 229.582 27.936 229.198 27.424C228.824 26.912 228.638 26.1547 228.638 25.152V20.224H229.966V24.976C229.966 25.712 230.078 26.2453 230.302 26.576C230.536 26.896 230.91 27.056 231.422 27.056C231.827 27.056 232.184 26.9547 232.494 26.752C232.803 26.5387 233.144 26.2027 233.518 25.744V20.224H234.83V28H233.742L233.63 26.784H233.582C233.219 27.2107 232.835 27.552 232.43 27.808C232.035 28.064 231.566 28.192 231.022 28.192ZM239.901 28.192C239.485 28.192 239.133 28.128 238.845 28C238.567 27.872 238.338 27.696 238.157 27.472C237.986 27.248 237.863 26.976 237.789 26.656C237.714 26.336 237.677 25.984 237.677 25.6V21.296H236.525V20.304L237.741 20.224L237.901 18.048H239.005V20.224H241.101V21.296H239.005V25.616C239.005 26.096 239.09 26.4693 239.261 26.736C239.442 26.992 239.757 27.12 240.205 27.12C240.343 27.12 240.493 27.0987 240.653 27.056C240.813 27.0133 240.957 26.9653 241.085 26.912L241.341 27.904C241.127 27.9787 240.893 28.0427 240.637 28.096C240.391 28.16 240.146 28.192 239.901 28.192ZM248.51 28.192C248.094 28.192 247.742 28.128 247.454 28C247.177 27.872 246.947 27.696 246.766 27.472C246.595 27.248 246.473 26.976 246.398 26.656C246.323 26.336 246.286 25.984 246.286 25.6V21.296H245.134V20.304L246.35 20.224L246.51 18.048H247.614V20.224H249.71V21.296H247.614V25.616C247.614 26.096 247.699 26.4693 247.87 26.736C248.051 26.992 248.366 27.12 248.814 27.12C248.953 27.12 249.102 27.0987 249.262 27.056C249.422 27.0133 249.566 26.9653 249.694 26.912L249.95 27.904C249.737 27.9787 249.502 28.0427 249.246 28.096C249.001 28.16 248.755 28.192 248.51 28.192ZM251.468 28V16.608H252.78V19.712L252.732 21.312C253.106 20.96 253.495 20.6613 253.9 20.416C254.306 20.16 254.78 20.032 255.324 20.032C256.146 20.032 256.743 20.288 257.116 20.8C257.5 21.312 257.692 22.0693 257.692 23.072V28H256.38V23.248C256.38 22.512 256.263 21.984 256.028 21.664C255.794 21.3333 255.42 21.168 254.908 21.168C254.503 21.168 254.146 21.2693 253.836 21.472C253.527 21.6747 253.175 21.9733 252.78 22.368V28H251.468ZM263.323 28.192C262.801 28.192 262.31 28.1013 261.851 27.92C261.403 27.728 261.009 27.4613 260.667 27.12C260.337 26.768 260.075 26.3413 259.883 25.84C259.691 25.3387 259.595 24.768 259.595 24.128C259.595 23.488 259.691 22.9173 259.883 22.416C260.086 21.904 260.347 21.472 260.667 21.12C260.998 20.768 261.371 20.5013 261.787 20.32C262.203 20.128 262.635 20.032 263.083 20.032C263.574 20.032 264.011 20.1173 264.395 20.288C264.79 20.4587 265.115 20.704 265.371 21.024C265.638 21.344 265.841 21.728 265.979 22.176C266.118 22.624 266.187 23.1253 266.187 23.68C266.187 23.8187 266.182 23.9573 266.171 24.096C266.171 24.224 266.161 24.336 266.139 24.432H260.891C260.945 25.264 261.201 25.9253 261.659 26.416C262.129 26.896 262.737 27.136 263.483 27.136C263.857 27.136 264.198 27.0827 264.507 26.976C264.827 26.8587 265.131 26.7093 265.419 26.528L265.883 27.392C265.542 27.6053 265.163 27.792 264.747 27.952C264.331 28.112 263.857 28.192 263.323 28.192ZM260.875 23.488H265.035C265.035 22.6987 264.865 22.1013 264.523 21.696C264.193 21.28 263.723 21.072 263.115 21.072C262.838 21.072 262.571 21.1253 262.315 21.232C262.07 21.3387 261.846 21.4987 261.643 21.712C261.441 21.9147 261.27 22.1653 261.131 22.464C261.003 22.7627 260.918 23.104 260.875 23.488ZM271.312 28V20.224H272.4L272.512 21.632H272.56C272.827 21.1413 273.147 20.752 273.52 20.464C273.904 20.176 274.32 20.032 274.768 20.032C275.077 20.032 275.355 20.0853 275.6 20.192L275.344 21.344C275.216 21.3013 275.099 21.2693 274.992 21.248C274.885 21.2267 274.752 21.216 274.592 21.216C274.261 21.216 273.915 21.3493 273.552 21.616C273.2 21.8827 272.891 22.3467 272.624 23.008V28H271.312ZM279.855 28.192C279.332 28.192 278.841 28.1013 278.383 27.92C277.935 27.728 277.54 27.4613 277.199 27.12C276.868 26.768 276.607 26.3413 276.415 25.84C276.223 25.3387 276.127 24.768 276.127 24.128C276.127 23.488 276.223 22.9173 276.415 22.416C276.617 21.904 276.879 21.472 277.199 21.12C277.529 20.768 277.903 20.5013 278.319 20.32C278.735 20.128 279.167 20.032 279.615 20.032C280.105 20.032 280.543 20.1173 280.927 20.288C281.321 20.4587 281.647 20.704 281.903 21.024C282.169 21.344 282.372 21.728 282.511 22.176C282.649 22.624 282.719 23.1253 282.719 23.68C282.719 23.8187 282.713 23.9573 282.703 24.096C282.703 24.224 282.692 24.336 282.671 24.432H277.423C277.476 25.264 277.732 25.9253 278.191 26.416C278.66 26.896 279.268 27.136 280.015 27.136C280.388 27.136 280.729 27.0827 281.039 26.976C281.359 26.8587 281.663 26.7093 281.951 26.528L282.415 27.392C282.073 27.6053 281.695 27.792 281.279 27.952C280.863 28.112 280.388 28.192 279.855 28.192ZM277.407 23.488H281.567C281.567 22.6987 281.396 22.1013 281.055 21.696C280.724 21.28 280.255 21.072 279.647 21.072C279.369 21.072 279.103 21.1253 278.847 21.232C278.601 21.3387 278.377 21.4987 278.175 21.712C277.972 21.9147 277.801 22.1653 277.663 22.464C277.535 22.7627 277.449 23.104 277.407 23.488ZM286.932 28.192C286.516 28.192 286.164 28.128 285.876 28C285.599 27.872 285.369 27.696 285.188 27.472C285.017 27.248 284.895 26.976 284.82 26.656C284.745 26.336 284.708 25.984 284.708 25.6V21.296H283.556V20.304L284.772 20.224L284.932 18.048H286.036V20.224H288.132V21.296H286.036V25.616C286.036 26.096 286.121 26.4693 286.292 26.736C286.473 26.992 286.788 27.12 287.236 27.12C287.375 27.12 287.524 27.0987 287.684 27.056C287.844 27.0133 287.988 26.9653 288.116 26.912L288.372 27.904C288.159 27.9787 287.924 28.0427 287.668 28.096C287.423 28.16 287.177 28.192 286.932 28.192ZM292.162 28.192C291.33 28.192 290.722 27.936 290.338 27.424C289.965 26.912 289.778 26.1547 289.778 25.152V20.224H291.106V24.976C291.106 25.712 291.218 26.2453 291.442 26.576C291.677 26.896 292.05 27.056 292.562 27.056C292.967 27.056 293.325 26.9547 293.634 26.752C293.943 26.5387 294.285 26.2027 294.658 25.744V20.224H295.97V28H294.882L294.77 26.784H294.722C294.359 27.2107 293.975 27.552 293.57 27.808C293.175 28.064 292.706 28.192 292.162 28.192ZM298.593 28V20.224H299.681L299.793 21.632H299.841C300.108 21.1413 300.428 20.752 300.801 20.464C301.185 20.176 301.601 20.032 302.049 20.032C302.359 20.032 302.636 20.0853 302.881 20.192L302.625 21.344C302.497 21.3013 302.38 21.2693 302.273 21.248C302.167 21.2267 302.033 21.216 301.873 21.216C301.543 21.216 301.196 21.3493 300.833 21.616C300.481 21.8827 300.172 22.3467 299.905 23.008V28H298.593ZM304.14 28V20.224H305.228L305.34 21.344H305.388C305.761 20.9707 306.151 20.6613 306.556 20.416C306.972 20.16 307.452 20.032 307.996 20.032C308.817 20.032 309.415 20.288 309.788 20.8C310.172 21.312 310.364 22.0693 310.364 23.072V28H309.052V23.248C309.052 22.512 308.935 21.984 308.7 21.664C308.465 21.3333 308.092 21.168 307.58 21.168C307.175 21.168 306.817 21.2693 306.508 21.472C306.199 21.6747 305.847 21.9733 305.452 22.368V28H304.14ZM316.093 31.28V20.224H317.181L317.293 21.12H317.341C317.693 20.8213 318.077 20.5653 318.493 20.352C318.92 20.1387 319.363 20.032 319.821 20.032C320.323 20.032 320.765 20.128 321.149 20.32C321.533 20.5013 321.853 20.768 322.109 21.12C322.365 21.4613 322.557 21.8773 322.685 22.368C322.824 22.848 322.893 23.392 322.893 24C322.893 24.6613 322.803 25.2533 322.621 25.776C322.44 26.288 322.195 26.7253 321.885 27.088C321.576 27.4507 321.219 27.728 320.813 27.92C320.408 28.1013 319.981 28.192 319.533 28.192C319.171 28.192 318.808 28.112 318.445 27.952C318.093 27.792 317.736 27.5733 317.373 27.296L317.405 28.656V31.28H316.093ZM319.309 27.088C319.629 27.088 319.923 27.0187 320.189 26.88C320.467 26.7307 320.701 26.528 320.893 26.272C321.096 26.0053 321.251 25.68 321.357 25.296C321.475 24.912 321.533 24.48 321.533 24C321.533 23.5733 321.496 23.184 321.421 22.832C321.347 22.48 321.224 22.1813 321.053 21.936C320.893 21.68 320.68 21.4827 320.413 21.344C320.157 21.2053 319.848 21.136 319.485 21.136C319.155 21.136 318.819 21.2267 318.477 21.408C318.147 21.5893 317.789 21.8507 317.405 22.192V26.272C317.757 26.5707 318.099 26.784 318.429 26.912C318.76 27.0293 319.053 27.088 319.309 27.088ZM327.992 28.192C327.512 28.192 327.054 28.1013 326.616 27.92C326.19 27.7387 325.811 27.4773 325.48 27.136C325.15 26.784 324.883 26.3573 324.68 25.856C324.488 25.344 324.392 24.768 324.392 24.128C324.392 23.4773 324.488 22.9013 324.68 22.4C324.883 21.888 325.15 21.456 325.48 21.104C325.811 20.752 326.19 20.4853 326.616 20.304C327.054 20.1227 327.512 20.032 327.992 20.032C328.472 20.032 328.926 20.1227 329.352 20.304C329.79 20.4853 330.174 20.752 330.504 21.104C330.835 21.456 331.096 21.888 331.288 22.4C331.491 22.9013 331.592 23.4773 331.592 24.128C331.592 24.768 331.491 25.344 331.288 25.856C331.096 26.3573 330.835 26.784 330.504 27.136C330.174 27.4773 329.79 27.7387 329.352 27.92C328.926 28.1013 328.472 28.192 327.992 28.192ZM327.992 27.104C328.323 27.104 328.627 27.0347 328.904 26.896C329.182 26.7467 329.416 26.544 329.608 26.288C329.811 26.0213 329.966 25.7067 330.072 25.344C330.179 24.9813 330.232 24.576 330.232 24.128C330.232 23.68 330.179 23.2747 330.072 22.912C329.966 22.5387 329.811 22.2187 329.608 21.952C329.416 21.6853 329.182 21.4827 328.904 21.344C328.627 21.1947 328.323 21.12 327.992 21.12C327.662 21.12 327.358 21.1947 327.08 21.344C326.803 21.4827 326.563 21.6853 326.36 21.952C326.168 22.2187 326.019 22.5387 325.912 22.912C325.806 23.2747 325.752 23.68 325.752 24.128C325.752 24.576 325.806 24.9813 325.912 25.344C326.019 25.7067 326.168 26.0213 326.36 26.288C326.563 26.544 326.803 26.7467 327.08 26.896C327.358 27.0347 327.662 27.104 327.992 27.104ZM335.032 28.192C334.531 28.192 334.173 28.0427 333.96 27.744C333.747 27.4453 333.64 27.008 333.64 26.432V16.608H334.952V26.528C334.952 26.7413 334.989 26.8907 335.064 26.976C335.139 27.0613 335.224 27.104 335.32 27.104C335.363 27.104 335.4 27.104 335.432 27.104C335.475 27.104 335.533 27.0933 335.608 27.072L335.784 28.064C335.699 28.1067 335.597 28.1387 335.48 28.16C335.363 28.1813 335.213 28.192 335.032 28.192ZM337.718 28V20.224H339.03V28H337.718ZM338.39 18.624C338.134 18.624 337.916 18.544 337.734 18.384C337.564 18.224 337.478 18.0213 337.478 17.776C337.478 17.52 337.564 17.3173 337.734 17.168C337.916 17.008 338.134 16.928 338.39 16.928C338.646 16.928 338.86 17.008 339.03 17.168C339.212 17.3173 339.302 17.52 339.302 17.776C339.302 18.0213 339.212 18.224 339.03 18.384C338.86 18.544 338.646 18.624 338.39 18.624ZM344.728 28.192C344.216 28.192 343.736 28.1013 343.288 27.92C342.84 27.7387 342.45 27.4773 342.12 27.136C341.8 26.784 341.544 26.3573 341.352 25.856C341.17 25.344 341.08 24.768 341.08 24.128C341.08 23.4773 341.181 22.9013 341.384 22.4C341.586 21.888 341.858 21.456 342.2 21.104C342.541 20.752 342.936 20.4853 343.384 20.304C343.842 20.1227 344.322 20.032 344.824 20.032C345.336 20.032 345.773 20.1227 346.136 20.304C346.498 20.4853 346.818 20.6987 347.096 20.944L346.424 21.808C346.2 21.6053 345.96 21.44 345.704 21.312C345.458 21.184 345.181 21.12 344.872 21.12C344.52 21.12 344.194 21.1947 343.896 21.344C343.597 21.4827 343.341 21.6853 343.128 21.952C342.914 22.2187 342.744 22.5387 342.616 22.912C342.498 23.2747 342.44 23.68 342.44 24.128C342.44 24.576 342.498 24.9813 342.616 25.344C342.733 25.7067 342.893 26.0213 343.096 26.288C343.309 26.544 343.565 26.7467 343.864 26.896C344.162 27.0347 344.488 27.104 344.84 27.104C345.202 27.104 345.533 27.0293 345.832 26.88C346.141 26.72 346.418 26.5333 346.664 26.32L347.24 27.2C346.888 27.5093 346.498 27.7547 346.072 27.936C345.645 28.1067 345.197 28.192 344.728 28.192ZM349.174 31.344C348.993 31.344 348.828 31.328 348.678 31.296C348.529 31.2747 348.39 31.2373 348.262 31.184L348.518 30.144C348.604 30.1653 348.7 30.1867 348.806 30.208C348.913 30.24 349.014 30.256 349.11 30.256C349.558 30.256 349.921 30.096 350.198 29.776C350.486 29.4667 350.71 29.072 350.87 28.592L351.046 28.016L347.926 20.224H349.286L350.87 24.528C350.988 24.8693 351.11 25.232 351.238 25.616C351.377 25.9893 351.505 26.3573 351.622 26.72H351.686C351.804 26.368 351.916 26 352.022 25.616C352.129 25.232 352.236 24.8693 352.342 24.528L353.734 20.224H355.014L352.086 28.64C351.948 29.024 351.793 29.3813 351.622 29.712C351.452 30.0427 351.249 30.3253 351.014 30.56C350.78 30.8053 350.513 30.9973 350.214 31.136C349.916 31.2747 349.569 31.344 349.174 31.344ZM87.536 52V45.296H86.48V44.304L87.536 44.224V42.992C87.536 42.192 87.7173 41.5627 88.08 41.104C88.4533 40.6453 89.0293 40.416 89.808 40.416C90.0533 40.416 90.2827 40.4427 90.496 40.496C90.72 40.5387 90.9227 40.5973 91.104 40.672L90.816 41.68C90.528 41.552 90.2347 41.488 89.936 41.488C89.2107 41.488 88.848 41.9893 88.848 42.992V44.224H90.496V45.296H88.848V52H87.536ZM94.8516 52.192C94.3716 52.192 93.913 52.1013 93.4756 51.92C93.049 51.7387 92.6703 51.4773 92.3396 51.136C92.009 50.784 91.7423 50.3573 91.5396 49.856C91.3476 49.344 91.2516 48.768 91.2516 48.128C91.2516 47.4773 91.3476 46.9013 91.5396 46.4C91.7423 45.888 92.009 45.456 92.3396 45.104C92.6703 44.752 93.049 44.4853 93.4756 44.304C93.913 44.1227 94.3716 44.032 94.8516 44.032C95.3316 44.032 95.785 44.1227 96.2116 44.304C96.649 44.4853 97.033 44.752 97.3636 45.104C97.6943 45.456 97.9556 45.888 98.1476 46.4C98.3503 46.9013 98.4516 47.4773 98.4516 48.128C98.4516 48.768 98.3503 49.344 98.1476 49.856C97.9556 50.3573 97.6943 50.784 97.3636 51.136C97.033 51.4773 96.649 51.7387 96.2116 51.92C95.785 52.1013 95.3316 52.192 94.8516 52.192ZM94.8516 51.104C95.1823 51.104 95.4863 51.0347 95.7636 50.896C96.041 50.7467 96.2756 50.544 96.4676 50.288C96.6703 50.0213 96.825 49.7067 96.9316 49.344C97.0383 48.9813 97.0916 48.576 97.0916 48.128C97.0916 47.68 97.0383 47.2747 96.9316 46.912C96.825 46.5387 96.6703 46.2187 96.4676 45.952C96.2756 45.6853 96.041 45.4827 95.7636 45.344C95.4863 45.1947 95.1823 45.12 94.8516 45.12C94.521 45.12 94.217 45.1947 93.9396 45.344C93.6623 45.4827 93.4223 45.6853 93.2196 45.952C93.0276 46.2187 92.8783 46.5387 92.7716 46.912C92.665 47.2747 92.6116 47.68 92.6116 48.128C92.6116 48.576 92.665 48.9813 92.7716 49.344C92.8783 49.7067 93.0276 50.0213 93.2196 50.288C93.4223 50.544 93.6623 50.7467 93.9396 50.896C94.217 51.0347 94.521 51.104 94.8516 51.104ZM100.5 52V44.224H101.588L101.7 45.632H101.748C102.014 45.1413 102.334 44.752 102.708 44.464C103.092 44.176 103.508 44.032 103.956 44.032C104.265 44.032 104.542 44.0853 104.788 44.192L104.532 45.344C104.404 45.3013 104.286 45.2693 104.18 45.248C104.073 45.2267 103.94 45.216 103.78 45.216C103.449 45.216 103.102 45.3493 102.74 45.616C102.388 45.8827 102.078 46.3467 101.812 47.008V52H100.5ZM111.042 52.192C110.391 52.192 109.847 52 109.41 51.616C108.983 51.232 108.77 50.688 108.77 49.984C108.77 49.1307 109.148 48.48 109.906 48.032C110.663 47.5733 111.874 47.2533 113.538 47.072C113.538 46.8267 113.511 46.5867 113.458 46.352C113.415 46.1173 113.335 45.9093 113.218 45.728C113.1 45.5467 112.935 45.4027 112.722 45.296C112.519 45.1787 112.258 45.12 111.938 45.12C111.49 45.12 111.068 45.2053 110.674 45.376C110.279 45.5467 109.927 45.7387 109.618 45.952L109.106 45.04C109.468 44.8053 109.911 44.5813 110.434 44.368C110.956 44.144 111.532 44.032 112.161 44.032C113.111 44.032 113.799 44.3253 114.226 44.912C114.652 45.488 114.866 46.2613 114.866 47.232V52H113.778L113.666 51.072H113.618C113.244 51.3813 112.844 51.648 112.418 51.872C111.991 52.0853 111.532 52.192 111.042 52.192ZM111.426 51.136C111.799 51.136 112.151 51.0507 112.482 50.88C112.812 50.6987 113.164 50.4373 113.538 50.096V47.936C112.887 48.0213 112.338 48.1227 111.89 48.24C111.452 48.3573 111.095 48.496 110.818 48.656C110.551 48.816 110.354 49.0027 110.226 49.216C110.108 49.4187 110.049 49.6427 110.049 49.888C110.049 50.336 110.183 50.656 110.45 50.848C110.716 51.04 111.042 51.136 111.426 51.136ZM120.515 55.28V44.224H121.603L121.715 45.12H121.763C122.115 44.8213 122.499 44.5653 122.915 44.352C123.342 44.1387 123.784 44.032 124.243 44.032C124.744 44.032 125.187 44.128 125.571 44.32C125.955 44.5013 126.275 44.768 126.531 45.12C126.787 45.4613 126.979 45.8773 127.107 46.368C127.246 46.848 127.315 47.392 127.315 48C127.315 48.6613 127.224 49.2533 127.043 49.776C126.862 50.288 126.616 50.7253 126.307 51.088C125.998 51.4507 125.64 51.728 125.235 51.92C124.83 52.1013 124.403 52.192 123.955 52.192C123.592 52.192 123.23 52.112 122.867 51.952C122.515 51.792 122.158 51.5733 121.795 51.296L121.827 52.656V55.28H120.515ZM123.731 51.088C124.051 51.088 124.344 51.0187 124.611 50.88C124.888 50.7307 125.123 50.528 125.315 50.272C125.518 50.0053 125.672 49.68 125.779 49.296C125.896 48.912 125.955 48.48 125.955 48C125.955 47.5733 125.918 47.184 125.843 46.832C125.768 46.48 125.646 46.1813 125.475 45.936C125.315 45.68 125.102 45.4827 124.835 45.344C124.579 45.2053 124.27 45.136 123.907 45.136C123.576 45.136 123.24 45.2267 122.899 45.408C122.568 45.5893 122.211 45.8507 121.827 46.192V50.272C122.179 50.5707 122.52 50.784 122.851 50.912C123.182 51.0293 123.475 51.088 123.731 51.088ZM129.39 52V44.224H130.478L130.59 45.632H130.638C130.905 45.1413 131.225 44.752 131.598 44.464C131.982 44.176 132.398 44.032 132.846 44.032C133.155 44.032 133.433 44.0853 133.678 44.192L133.422 45.344C133.294 45.3013 133.177 45.2693 133.07 45.248C132.963 45.2267 132.83 45.216 132.67 45.216C132.339 45.216 131.993 45.3493 131.63 45.616C131.278 45.8827 130.969 46.3467 130.702 47.008V52H129.39ZM137.805 52.192C137.325 52.192 136.866 52.1013 136.429 51.92C136.002 51.7387 135.623 51.4773 135.293 51.136C134.962 50.784 134.695 50.3573 134.493 49.856C134.301 49.344 134.205 48.768 134.205 48.128C134.205 47.4773 134.301 46.9013 134.493 46.4C134.695 45.888 134.962 45.456 135.293 45.104C135.623 44.752 136.002 44.4853 136.429 44.304C136.866 44.1227 137.325 44.032 137.805 44.032C138.285 44.032 138.738 44.1227 139.165 44.304C139.602 44.4853 139.986 44.752 140.317 45.104C140.647 45.456 140.909 45.888 141.101 46.4C141.303 46.9013 141.405 47.4773 141.405 48.128C141.405 48.768 141.303 49.344 141.101 49.856C140.909 50.3573 140.647 50.784 140.317 51.136C139.986 51.4773 139.602 51.7387 139.165 51.92C138.738 52.1013 138.285 52.192 137.805 52.192ZM137.805 51.104C138.135 51.104 138.439 51.0347 138.717 50.896C138.994 50.7467 139.229 50.544 139.421 50.288C139.623 50.0213 139.778 49.7067 139.885 49.344C139.991 48.9813 140.045 48.576 140.045 48.128C140.045 47.68 139.991 47.2747 139.885 46.912C139.778 46.5387 139.623 46.2187 139.421 45.952C139.229 45.6853 138.994 45.4827 138.717 45.344C138.439 45.1947 138.135 45.12 137.805 45.12C137.474 45.12 137.17 45.1947 136.893 45.344C136.615 45.4827 136.375 45.6853 136.173 45.952C135.981 46.2187 135.831 46.5387 135.725 46.912C135.618 47.2747 135.565 47.68 135.565 48.128C135.565 48.576 135.618 48.9813 135.725 49.344C135.831 49.7067 135.981 50.0213 136.173 50.288C136.375 50.544 136.615 50.7467 136.893 50.896C137.17 51.0347 137.474 51.104 137.805 51.104ZM146.109 52.192C145.127 52.192 144.343 51.84 143.757 51.136C143.181 50.432 142.893 49.4293 142.893 48.128C142.893 47.4987 142.983 46.9333 143.165 46.432C143.357 45.92 143.607 45.488 143.917 45.136C144.226 44.784 144.583 44.512 144.989 44.32C145.394 44.128 145.821 44.032 146.269 44.032C146.717 44.032 147.106 44.112 147.437 44.272C147.767 44.432 148.103 44.6507 148.445 44.928L148.381 43.6V40.608H149.709V52H148.621L148.509 51.088H148.461C148.151 51.3867 147.794 51.648 147.389 51.872C146.994 52.0853 146.567 52.192 146.109 52.192ZM146.397 51.088C146.759 51.088 147.101 51.0027 147.421 50.832C147.741 50.6507 148.061 50.3787 148.381 50.016V45.952C148.05 45.6533 147.73 45.4453 147.421 45.328C147.122 45.2 146.813 45.136 146.493 45.136C146.183 45.136 145.89 45.2107 145.613 45.36C145.346 45.4987 145.111 45.7013 144.909 45.968C144.706 46.224 144.546 46.5333 144.429 46.896C144.311 47.2587 144.253 47.664 144.253 48.112C144.253 49.0507 144.439 49.7813 144.813 50.304C145.186 50.8267 145.714 51.088 146.397 51.088ZM154.6 52.192C153.768 52.192 153.16 51.936 152.776 51.424C152.402 50.912 152.216 50.1547 152.216 49.152V44.224H153.544V48.976C153.544 49.712 153.656 50.2453 153.88 50.576C154.114 50.896 154.488 51.056 155 51.056C155.405 51.056 155.762 50.9547 156.072 50.752C156.381 50.5387 156.722 50.2027 157.096 49.744V44.224H158.408V52H157.32L157.208 50.784H157.16C156.797 51.2107 156.413 51.552 156.008 51.808C155.613 52.064 155.144 52.192 154.6 52.192ZM164.103 52.192C163.591 52.192 163.111 52.1013 162.663 51.92C162.215 51.7387 161.825 51.4773 161.495 51.136C161.175 50.784 160.919 50.3573 160.727 49.856C160.545 49.344 160.455 48.768 160.455 48.128C160.455 47.4773 160.556 46.9013 160.759 46.4C160.961 45.888 161.233 45.456 161.575 45.104C161.916 44.752 162.311 44.4853 162.759 44.304C163.217 44.1227 163.697 44.032 164.199 44.032C164.711 44.032 165.148 44.1227 165.511 44.304C165.873 44.4853 166.193 44.6987 166.471 44.944L165.799 45.808C165.575 45.6053 165.335 45.44 165.079 45.312C164.833 45.184 164.556 45.12 164.247 45.12C163.895 45.12 163.569 45.1947 163.271 45.344C162.972 45.4827 162.716 45.6853 162.503 45.952C162.289 46.2187 162.119 46.5387 161.991 46.912C161.873 47.2747 161.815 47.68 161.815 48.128C161.815 48.576 161.873 48.9813 161.991 49.344C162.108 49.7067 162.268 50.0213 162.471 50.288C162.684 50.544 162.94 50.7467 163.239 50.896C163.537 51.0347 163.863 51.104 164.215 51.104C164.577 51.104 164.908 51.0293 165.207 50.88C165.516 50.72 165.793 50.5333 166.039 50.32L166.615 51.2C166.263 51.5093 165.873 51.7547 165.447 51.936C165.02 52.1067 164.572 52.192 164.103 52.192ZM170.619 52.192C170.203 52.192 169.851 52.128 169.563 52C169.286 51.872 169.057 51.696 168.875 51.472C168.705 51.248 168.582 50.976 168.507 50.656C168.433 50.336 168.395 49.984 168.395 49.6V45.296H167.243V44.304L168.459 44.224L168.619 42.048H169.723V44.224H171.819V45.296H169.723V49.616C169.723 50.096 169.809 50.4693 169.979 50.736C170.161 50.992 170.475 51.12 170.923 51.12C171.062 51.12 171.211 51.0987 171.371 51.056C171.531 51.0133 171.675 50.9653 171.803 50.912L172.059 51.904C171.846 51.9787 171.611 52.0427 171.355 52.096C171.11 52.16 170.865 52.192 170.619 52.192ZM176.909 52V41.504H178.237V52H176.909ZM184.187 55.28V44.224H185.275L185.387 45.12H185.435C185.787 44.8213 186.171 44.5653 186.587 44.352C187.014 44.1387 187.456 44.032 187.915 44.032C188.416 44.032 188.859 44.128 189.243 44.32C189.627 44.5013 189.947 44.768 190.203 45.12C190.459 45.4613 190.651 45.8773 190.779 46.368C190.918 46.848 190.987 47.392 190.987 48C190.987 48.6613 190.896 49.2533 190.715 49.776C190.534 50.288 190.288 50.7253 189.979 51.088C189.67 51.4507 189.312 51.728 188.907 51.92C188.502 52.1013 188.075 52.192 187.627 52.192C187.264 52.192 186.902 52.112 186.539 51.952C186.187 51.792 185.83 51.5733 185.467 51.296L185.499 52.656V55.28H184.187ZM187.403 51.088C187.723 51.088 188.016 51.0187 188.283 50.88C188.56 50.7307 188.795 50.528 188.987 50.272C189.19 50.0053 189.344 49.68 189.451 49.296C189.568 48.912 189.627 48.48 189.627 48C189.627 47.5733 189.59 47.184 189.515 46.832C189.44 46.48 189.318 46.1813 189.147 45.936C188.987 45.68 188.774 45.4827 188.507 45.344C188.251 45.2053 187.942 45.136 187.579 45.136C187.248 45.136 186.912 45.2267 186.571 45.408C186.24 45.5893 185.883 45.8507 185.499 46.192V50.272C185.851 50.5707 186.192 50.784 186.523 50.912C186.854 51.0293 187.147 51.088 187.403 51.088ZM195.334 52.192C194.502 52.192 193.894 51.936 193.51 51.424C193.137 50.912 192.95 50.1547 192.95 49.152V44.224H194.278V48.976C194.278 49.712 194.39 50.2453 194.614 50.576C194.849 50.896 195.222 51.056 195.734 51.056C196.139 51.056 196.497 50.9547 196.806 50.752C197.115 50.5387 197.457 50.2027 197.83 49.744V44.224H199.142V52H198.054L197.942 50.784H197.894C197.531 51.2107 197.147 51.552 196.742 51.808C196.347 52.064 195.878 52.192 195.334 52.192ZM201.765 52V44.224H202.853L202.965 45.632H203.013C203.28 45.1413 203.6 44.752 203.973 44.464C204.357 44.176 204.773 44.032 205.221 44.032C205.53 44.032 205.808 44.0853 206.053 44.192L205.797 45.344C205.669 45.3013 205.552 45.2693 205.445 45.248C205.338 45.2267 205.205 45.216 205.045 45.216C204.714 45.216 204.368 45.3493 204.005 45.616C203.653 45.8827 203.344 46.3467 203.077 47.008V52H201.765ZM210.228 52.192C209.716 52.192 209.236 52.1013 208.788 51.92C208.34 51.7387 207.95 51.4773 207.62 51.136C207.3 50.784 207.044 50.3573 206.852 49.856C206.67 49.344 206.58 48.768 206.58 48.128C206.58 47.4773 206.681 46.9013 206.884 46.4C207.086 45.888 207.358 45.456 207.7 45.104C208.041 44.752 208.436 44.4853 208.884 44.304C209.342 44.1227 209.822 44.032 210.324 44.032C210.836 44.032 211.273 44.1227 211.636 44.304C211.998 44.4853 212.318 44.6987 212.596 44.944L211.924 45.808C211.7 45.6053 211.46 45.44 211.204 45.312C210.958 45.184 210.681 45.12 210.372 45.12C210.02 45.12 209.694 45.1947 209.396 45.344C209.097 45.4827 208.841 45.6853 208.628 45.952C208.414 46.2187 208.244 46.5387 208.116 46.912C207.998 47.2747 207.94 47.68 207.94 48.128C207.94 48.576 207.998 48.9813 208.116 49.344C208.233 49.7067 208.393 50.0213 208.596 50.288C208.809 50.544 209.065 50.7467 209.364 50.896C209.662 51.0347 209.988 51.104 210.34 51.104C210.702 51.104 211.033 51.0293 211.332 50.88C211.641 50.72 211.918 50.5333 212.164 50.32L212.74 51.2C212.388 51.5093 211.998 51.7547 211.572 51.936C211.145 52.1067 210.697 52.192 210.228 52.192ZM214.453 52V40.608H215.765V43.712L215.717 45.312C216.09 44.96 216.479 44.6613 216.885 44.416C217.29 44.16 217.765 44.032 218.309 44.032C219.13 44.032 219.727 44.288 220.101 44.8C220.485 45.312 220.677 46.0693 220.677 47.072V52H219.365V47.248C219.365 46.512 219.247 45.984 219.013 45.664C218.778 45.3333 218.405 45.168 217.893 45.168C217.487 45.168 217.13 45.2693 216.821 45.472C216.511 45.6747 216.159 45.9733 215.765 46.368V52H214.453ZM224.948 52.192C224.297 52.192 223.753 52 223.316 51.616C222.889 51.232 222.676 50.688 222.676 49.984C222.676 49.1307 223.054 48.48 223.812 48.032C224.569 47.5733 225.78 47.2533 227.444 47.072C227.444 46.8267 227.417 46.5867 227.364 46.352C227.321 46.1173 227.241 45.9093 227.124 45.728C227.006 45.5467 226.841 45.4027 226.628 45.296C226.425 45.1787 226.164 45.12 225.844 45.12C225.396 45.12 224.974 45.2053 224.58 45.376C224.185 45.5467 223.833 45.7387 223.524 45.952L223.012 45.04C223.374 44.8053 223.817 44.5813 224.34 44.368C224.862 44.144 225.438 44.032 226.068 44.032C227.017 44.032 227.705 44.3253 228.132 44.912C228.558 45.488 228.772 46.2613 228.772 47.232V52H227.684L227.572 51.072H227.524C227.15 51.3813 226.75 51.648 226.324 51.872C225.897 52.0853 225.438 52.192 224.948 52.192ZM225.332 51.136C225.705 51.136 226.057 51.0507 226.388 50.88C226.718 50.6987 227.07 50.4373 227.444 50.096V47.936C226.793 48.0213 226.244 48.1227 225.796 48.24C225.358 48.3573 225.001 48.496 224.724 48.656C224.457 48.816 224.26 49.0027 224.132 49.216C224.014 49.4187 223.956 49.6427 223.956 49.888C223.956 50.336 224.089 50.656 224.356 50.848C224.622 51.04 224.948 51.136 225.332 51.136ZM233.25 52.192C232.696 52.192 232.168 52.0907 231.666 51.888C231.165 51.6853 230.728 51.4293 230.354 51.12L231.01 50.24C231.352 50.5173 231.698 50.7413 232.05 50.912C232.413 51.0827 232.829 51.168 233.298 51.168C233.81 51.168 234.194 51.0507 234.45 50.816C234.706 50.5813 234.834 50.2933 234.834 49.952C234.834 49.7493 234.781 49.5733 234.674 49.424C234.568 49.2747 234.429 49.1467 234.258 49.04C234.098 48.9227 233.912 48.8213 233.698 48.736C233.485 48.6507 233.272 48.5653 233.058 48.48C232.781 48.384 232.504 48.2773 232.226 48.16C231.949 48.032 231.698 47.8827 231.474 47.712C231.261 47.5307 231.085 47.3227 230.946 47.088C230.808 46.8533 230.738 46.5707 230.738 46.24C230.738 45.9307 230.797 45.6427 230.914 45.376C231.042 45.0987 231.218 44.864 231.442 44.672C231.677 44.4693 231.96 44.3147 232.29 44.208C232.621 44.0907 232.994 44.032 233.41 44.032C233.901 44.032 234.349 44.1173 234.754 44.288C235.17 44.4587 235.528 44.6667 235.826 44.912L235.202 45.744C234.936 45.5413 234.658 45.376 234.37 45.248C234.082 45.12 233.768 45.056 233.426 45.056C232.936 45.056 232.573 45.168 232.338 45.392C232.114 45.616 232.002 45.8773 232.002 46.176C232.002 46.3573 232.05 46.5173 232.146 46.656C232.242 46.784 232.37 46.9013 232.53 47.008C232.69 47.104 232.872 47.1947 233.074 47.28C233.288 47.3547 233.506 47.4347 233.73 47.52C234.008 47.6267 234.285 47.7387 234.562 47.856C234.85 47.9733 235.106 48.1227 235.33 48.304C235.554 48.4747 235.736 48.688 235.874 48.944C236.024 49.2 236.098 49.5093 236.098 49.872C236.098 50.192 236.034 50.4907 235.906 50.768C235.789 51.0453 235.608 51.2907 235.362 51.504C235.128 51.7173 234.829 51.8827 234.466 52C234.114 52.128 233.709 52.192 233.25 52.192ZM241.073 52.192C240.551 52.192 240.06 52.1013 239.601 51.92C239.153 51.728 238.759 51.4613 238.417 51.12C238.087 50.768 237.825 50.3413 237.633 49.84C237.441 49.3387 237.345 48.768 237.345 48.128C237.345 47.488 237.441 46.9173 237.633 46.416C237.836 45.904 238.097 45.472 238.417 45.12C238.748 44.768 239.121 44.5013 239.537 44.32C239.953 44.128 240.385 44.032 240.833 44.032C241.324 44.032 241.761 44.1173 242.145 44.288C242.54 44.4587 242.865 44.704 243.121 45.024C243.388 45.344 243.591 45.728 243.729 46.176C243.868 46.624 243.937 47.1253 243.937 47.68C243.937 47.8187 243.932 47.9573 243.921 48.096C243.921 48.224 243.911 48.336 243.889 48.432H238.641C238.695 49.264 238.951 49.9253 239.409 50.416C239.879 50.896 240.487 51.136 241.233 51.136C241.607 51.136 241.948 51.0827 242.257 50.976C242.577 50.8587 242.881 50.7093 243.169 50.528L243.633 51.392C243.292 51.6053 242.913 51.792 242.497 51.952C242.081 52.112 241.607 52.192 241.073 52.192ZM238.625 47.488H242.785C242.785 46.6987 242.615 46.1013 242.273 45.696C241.943 45.28 241.473 45.072 240.865 45.072C240.588 45.072 240.321 45.1253 240.065 45.232C239.82 45.3387 239.596 45.4987 239.393 45.712C239.191 45.9147 239.02 46.1653 238.881 46.464C238.753 46.7627 238.668 47.104 238.625 47.488ZM248.515 52.192C247.534 52.192 246.75 51.84 246.163 51.136C245.587 50.432 245.299 49.4293 245.299 48.128C245.299 47.4987 245.39 46.9333 245.571 46.432C245.763 45.92 246.014 45.488 246.323 45.136C246.632 44.784 246.99 44.512 247.395 44.32C247.8 44.128 248.227 44.032 248.675 44.032C249.123 44.032 249.512 44.112 249.843 44.272C250.174 44.432 250.51 44.6507 250.851 44.928L250.787 43.6V40.608H252.115V52H251.027L250.915 51.088H250.867C250.558 51.3867 250.2 51.648 249.795 51.872C249.4 52.0853 248.974 52.192 248.515 52.192ZM248.803 51.088C249.166 51.088 249.507 51.0027 249.827 50.832C250.147 50.6507 250.467 50.3787 250.787 50.016V45.952C250.456 45.6533 250.136 45.4453 249.827 45.328C249.528 45.2 249.219 45.136 248.899 45.136C248.59 45.136 248.296 45.2107 248.019 45.36C247.752 45.4987 247.518 45.7013 247.315 45.968C247.112 46.224 246.952 46.5333 246.835 46.896C246.718 47.2587 246.659 47.664 246.659 48.112C246.659 49.0507 246.846 49.7813 247.219 50.304C247.592 50.8267 248.12 51.088 248.803 51.088ZM255.422 52.192C255.155 52.192 254.926 52.1013 254.734 51.92C254.553 51.728 254.462 51.488 254.462 51.2C254.462 50.8907 254.553 50.6453 254.734 50.464C254.926 50.272 255.155 50.176 255.422 50.176C255.678 50.176 255.897 50.272 256.078 50.464C256.27 50.6453 256.366 50.8907 256.366 51.2C256.366 51.488 256.27 51.728 256.078 51.92C255.897 52.1013 255.678 52.192 255.422 52.192Z" fill="white"/>
<path d="M73.968 87.168C72.82 87.168 71.9753 86.678 71.434 85.698L72.274 85.11C72.4793 85.474 72.7127 85.74 72.974 85.908C73.2353 86.0667 73.5293 86.146 73.856 86.146C74.3507 86.146 74.7193 85.9967 74.962 85.698C75.2047 85.39 75.326 84.886 75.326 84.186V77.816H76.502V84.298C76.502 84.69 76.4507 85.0633 76.348 85.418C76.2547 85.7633 76.1053 86.0667 75.9 86.328C75.704 86.5893 75.4427 86.7947 75.116 86.944C74.7987 87.0933 74.416 87.168 73.968 87.168ZM80.8626 87.168C80.1346 87.168 79.6026 86.944 79.2666 86.496C78.9399 86.048 78.7766 85.3853 78.7766 84.508V80.196H79.9386V84.354C79.9386 84.998 80.0366 85.4647 80.2326 85.754C80.4379 86.034 80.7646 86.174 81.2126 86.174C81.5672 86.174 81.8799 86.0853 82.1506 85.908C82.4212 85.7213 82.7199 85.4273 83.0466 85.026V80.196H84.1946V87H83.2426L83.1446 85.936H83.1026C82.7852 86.3093 82.4492 86.608 82.0946 86.832C81.7492 87.056 81.3386 87.168 80.8626 87.168ZM88.2678 87.168C87.7825 87.168 87.3205 87.0793 86.8818 86.902C86.4431 86.7247 86.0605 86.5007 85.7338 86.23L86.3078 85.46C86.6065 85.7027 86.9098 85.8987 87.2178 86.048C87.5351 86.1973 87.8991 86.272 88.3098 86.272C88.7578 86.272 89.0938 86.1693 89.3178 85.964C89.5418 85.7587 89.6538 85.5067 89.6538 85.208C89.6538 85.0307 89.6071 84.8767 89.5138 84.746C89.4205 84.6153 89.2991 84.5033 89.1498 84.41C89.0098 84.3073 88.8465 84.2187 88.6598 84.144C88.4731 84.0693 88.2865 83.9947 88.0998 83.92C87.8571 83.836 87.6145 83.7427 87.3718 83.64C87.1291 83.528 86.9098 83.3973 86.7138 83.248C86.5271 83.0893 86.3731 82.9073 86.2518 82.702C86.1305 82.4967 86.0698 82.2493 86.0698 81.96C86.0698 81.6893 86.1211 81.4373 86.2238 81.204C86.3358 80.9613 86.4898 80.756 86.6858 80.588C86.8911 80.4107 87.1385 80.2753 87.4278 80.182C87.7171 80.0793 88.0438 80.028 88.4078 80.028C88.8371 80.028 89.2291 80.1027 89.5838 80.252C89.9478 80.4013 90.2605 80.5833 90.5218 80.798L89.9758 81.526C89.7425 81.3487 89.4998 81.204 89.2478 81.092C88.9958 80.98 88.7205 80.924 88.4218 80.924C87.9925 80.924 87.6751 81.022 87.4698 81.218C87.2738 81.414 87.1758 81.6427 87.1758 81.904C87.1758 82.0627 87.2178 82.2027 87.3018 82.324C87.3858 82.436 87.4978 82.5387 87.6378 82.632C87.7778 82.716 87.9365 82.7953 88.1138 82.87C88.3005 82.9353 88.4918 83.0053 88.6878 83.08C88.9305 83.1733 89.1731 83.2713 89.4158 83.374C89.6678 83.4767 89.8918 83.6073 90.0878 83.766C90.2838 83.9153 90.4425 84.102 90.5638 84.326C90.6945 84.55 90.7598 84.8207 90.7598 85.138C90.7598 85.418 90.7038 85.6793 90.5918 85.922C90.4891 86.1647 90.3305 86.3793 90.1158 86.566C89.9105 86.7527 89.6491 86.8973 89.3318 87C89.0238 87.112 88.6691 87.168 88.2678 87.168ZM94.2236 87.168C93.8596 87.168 93.5516 87.112 93.2996 87C93.0569 86.888 92.8563 86.734 92.6976 86.538C92.5483 86.342 92.4409 86.104 92.3756 85.824C92.3103 85.544 92.2776 85.236 92.2776 84.9V81.134H91.2696V80.266L92.3336 80.196L92.4736 78.292H93.4396V80.196H95.2736V81.134H93.4396V84.914C93.4396 85.334 93.5143 85.6607 93.6636 85.894C93.8223 86.118 94.0976 86.23 94.4896 86.23C94.6109 86.23 94.7416 86.2113 94.8816 86.174C95.0216 86.1367 95.1476 86.0947 95.2596 86.048L95.4836 86.916C95.2969 86.9813 95.0916 87.0373 94.8676 87.084C94.6529 87.14 94.4383 87.168 94.2236 87.168ZM99.7268 87V77.816H100.931L104.249 83.584L105.243 85.488H105.299C105.271 85.0213 105.238 84.5407 105.201 84.046C105.173 83.542 105.159 83.0473 105.159 82.562V77.816H106.265V87H105.061L101.729 81.218L100.735 79.328H100.679C100.716 79.7947 100.749 80.2707 100.777 80.756C100.814 81.232 100.833 81.7127 100.833 82.198V87H99.7268ZM111.325 87.168C110.905 87.168 110.504 87.0887 110.121 86.93C109.748 86.7713 109.417 86.5427 109.127 86.244C108.838 85.936 108.605 85.5627 108.427 85.124C108.259 84.676 108.175 84.172 108.175 83.612C108.175 83.0427 108.259 82.5387 108.427 82.1C108.605 81.652 108.838 81.274 109.127 80.966C109.417 80.658 109.748 80.4247 110.121 80.266C110.504 80.1073 110.905 80.028 111.325 80.028C111.745 80.028 112.142 80.1073 112.515 80.266C112.898 80.4247 113.234 80.658 113.523 80.966C113.813 81.274 114.041 81.652 114.209 82.1C114.387 82.5387 114.475 83.0427 114.475 83.612C114.475 84.172 114.387 84.676 114.209 85.124C114.041 85.5627 113.813 85.936 113.523 86.244C113.234 86.5427 112.898 86.7713 112.515 86.93C112.142 87.0887 111.745 87.168 111.325 87.168ZM111.325 86.216C111.615 86.216 111.881 86.1553 112.123 86.034C112.366 85.9033 112.571 85.726 112.739 85.502C112.917 85.2687 113.052 84.9933 113.145 84.676C113.239 84.3587 113.285 84.004 113.285 83.612C113.285 83.22 113.239 82.8653 113.145 82.548C113.052 82.2213 112.917 81.9413 112.739 81.708C112.571 81.4747 112.366 81.2973 112.123 81.176C111.881 81.0453 111.615 80.98 111.325 80.98C111.036 80.98 110.77 81.0453 110.527 81.176C110.285 81.2973 110.075 81.4747 109.897 81.708C109.729 81.9413 109.599 82.2213 109.505 82.548C109.412 82.8653 109.365 83.22 109.365 83.612C109.365 84.004 109.412 84.3587 109.505 84.676C109.599 84.9933 109.729 85.2687 109.897 85.502C110.075 85.726 110.285 85.9033 110.527 86.034C110.77 86.1553 111.036 86.216 111.325 86.216ZM117.29 87L115.4 80.196H116.576L117.584 84.13C117.659 84.4567 117.729 84.774 117.794 85.082C117.86 85.39 117.925 85.7027 117.99 86.02H118.046C118.121 85.7027 118.196 85.39 118.27 85.082C118.345 84.7647 118.424 84.4473 118.508 84.13L119.558 80.196H120.678L121.742 84.13C121.826 84.4567 121.906 84.774 121.98 85.082C122.064 85.39 122.144 85.7027 122.218 86.02H122.274C122.349 85.7027 122.419 85.39 122.484 85.082C122.55 84.774 122.62 84.4567 122.694 84.13L123.688 80.196H124.78L122.96 87H121.56L120.58 83.346C120.496 83.0193 120.417 82.6973 120.342 82.38C120.277 82.0627 120.202 81.7313 120.118 81.386H120.062C119.988 81.7313 119.913 82.0673 119.838 82.394C119.764 82.7113 119.68 83.0333 119.586 83.36L118.634 87H117.29Z" fill="white"/>
</svg>
